<?xml version="1.0" encoding="UTF-8"?>
<svg width="30px" height="28px" viewBox="0 0 30 28" version="1.1" xmlns="http://www.w3.org/2000/svg" xmlns:xlink="http://www.w3.org/1999/xlink">
    <!-- Generator: Sketch 45.2 (43514) - http://www.bohemiancoding.com/sketch -->
    <title>Combined Shape</title>
    <desc>Created with Sketch.</desc>
    <defs></defs>
    <g id="Shop---Design" stroke="none" stroke-width="1" fill="none" fill-rule="evenodd">
        <g id="4" transform="translate(-1212.000000, -42.000000)" fill="#FFFFFF">
            <path d="M1224.57925,68.2868686 C1223.93671,68.2868686 1223.41399,67.7640942 1223.41399,67.1216126 C1223.41399,66.4790138 1223.93677,65.9563566 1224.57925,65.9563566 C1225.22173,65.9563566 1225.74451,66.4790724 1225.74451,67.1216126 C1225.74451,67.7642114 1225.22173,68.2868686 1224.57925,68.2868686 M1224.57925,64.4833071 C1226.03402,64.4833071 1227.21761,65.666903 1227.21767,67.1217298 C1227.21767,68.576498 1226.03408,69.7601525 1224.57925,69.7601525 C1223.12442,69.7601525 1221.94083,68.576498 1221.94083,67.1217298 C1221.94083,65.666903 1223.12442,64.4833071 1224.57925,64.4833071 Z M1233.83385,64.4833071 C1235.28861,64.4833071 1236.47221,65.666903 1236.47227,67.1217298 C1236.47227,68.576498 1235.28867,69.7601525 1233.83385,69.7601525 C1232.37902,69.7601525 1231.19542,68.576498 1231.19542,67.1217298 C1231.19542,65.666903 1232.37902,64.4833071 1233.83385,64.4833071 Z M1233.83385,68.2868686 C1234.47633,68.2868686 1234.9991,67.7642114 1234.9991,67.1216126 C1234.9991,66.4790724 1234.47639,65.9563566 1233.83385,65.9563566 C1233.19136,65.9563566 1232.66859,66.4790138 1232.66859,67.1216126 C1232.66859,67.7640942 1233.19131,68.2868686 1233.83385,68.2868686 Z M1241.66846,47.3103623 C1241.94942,47.65507 1242.05911,48.1026684 1241.9694,48.5381379 L1239.90913,58.5386441 C1239.76879,59.2199735 1239.16194,59.7145642 1238.46631,59.7145642 L1220.24989,59.7145642 L1220.68343,61.8190211 L1238.3299,61.8190211 C1238.73666,61.8190211 1239.06643,62.1487873 1239.06643,62.5555458 C1239.06643,62.962363 1238.73666,63.2921292 1238.3299,63.2921292 L1220.68337,63.2921292 C1219.98774,63.2921292 1219.38089,62.797597 1219.24049,62.1162677 L1215.67652,44.8157875 L1212.44337,43.4124061 C1212.07036,43.2505113 1211.89904,42.8166824 1212.06117,42.4434395 C1212.22306,42.0703139 1212.65683,41.899044 1213.03007,42.0611732 L1216.26305,43.4644961 C1216.70256,43.6553362 1217.02266,44.0493213 1217.1194,44.5185409 L1217.5827,46.7679004 L1240.52653,46.7679004 C1240.97137,46.7679004 1241.38757,46.9655961 1241.66846,47.3103623 Z M1238.46631,58.2414561 L1240.52647,48.2410671 L1217.88627,48.2410085 L1219.94649,58.2414561 L1238.46631,58.2414561 Z M1234.48342,50.5922686 C1234.89023,50.5922686 1235.22,50.9219762 1235.22,51.3288519 C1235.22,51.7356691 1234.89023,52.0654353 1234.48342,52.0654353 L1223.92779,52.0654353 C1223.52103,52.0654353 1223.19121,51.7356691 1223.19121,51.3288519 C1223.19121,50.9220348 1223.52098,50.5922686 1223.92779,50.5922686 L1234.48342,50.5922686 Z M1233.90892,54.417293 C1234.31562,54.417293 1234.64545,54.7471178 1234.64545,55.1538763 C1234.64545,55.5606935 1234.31562,55.8904597 1233.90886,55.8904597 L1224.50238,55.8904597 C1224.09556,55.8904597 1223.7658,55.5606935 1223.7658,55.1538763 C1223.7658,54.7470592 1224.09556,54.417293 1224.50238,54.417293 L1233.90892,54.417293 Z" id="Combined-Shape" transform="translate(1227.000000, 55.880076) scale(-1, 1) translate(-1227.000000, -55.880076) "></path>
        </g>
    </g>
</svg>