<?xml version="1.0" encoding="UTF-8"?>
<svg width="25px" height="24px" viewBox="0 0 25 24" version="1.1" xmlns="http://www.w3.org/2000/svg" xmlns:xlink="http://www.w3.org/1999/xlink">
    <!-- Generator: Sketch 48.2 (47327) - http://www.bohemiancoding.com/sketch -->
    <title>Combined Shape</title>
    <desc>Created with Sketch.</desc>
    <defs></defs>
    <g id="4" stroke="none" stroke-width="1" fill="none" fill-rule="evenodd" transform="translate(-1212.000000, -13.000000)">
        <g id="header-scroll" transform="translate(0.000000, 1.000000)" fill="#00285A">
            <g id="Group-2" transform="translate(1188.000000, 3.000000)">
                <path d="M34.4827088,30.9057238 C33.9472586,30.9057238 33.5116621,30.4700785 33.5116621,29.9346772 C33.5116621,29.3991782 33.9473074,28.9636305 34.4827088,28.9636305 C35.0181101,28.9636305 35.4537554,29.399227 35.4537554,29.9346772 C35.4537554,30.4701762 35.0181101,30.9057238 34.4827088,30.9057238 M34.4827088,27.7360892 C35.6950156,27.7360892 36.6813455,28.7224191 36.6813944,29.9347748 C36.6813944,31.1470817 35.6950645,32.1334604 34.4827088,32.1334604 C33.2703531,32.1334604 32.2840232,31.1470817 32.2840232,29.9347748 C32.2840232,28.7224191 33.2703531,27.7360892 34.4827088,27.7360892 Z M42.194871,27.7360892 C43.4071779,27.7360892 44.3935078,28.7224191 44.3935566,29.9347748 C44.3935566,31.1470817 43.4072267,32.1334604 42.194871,32.1334604 C40.9825153,32.1334604 39.9961854,31.1470817 39.9961854,29.9347748 C39.9961854,28.7224191 40.9825153,27.7360892 42.194871,27.7360892 Z M42.194871,30.9057238 C42.7302724,30.9057238 43.1659177,30.4701762 43.1659177,29.9346772 C43.1659177,29.399227 42.7303212,28.9636305 42.194871,28.9636305 C41.6594697,28.9636305 41.2238244,29.3991782 41.2238244,29.9346772 C41.2238244,30.4700785 41.6594208,30.9057238 42.194871,30.9057238 Z M48.7237206,13.4253019 C48.9578519,13.7125583 49.0492583,14.085557 48.9745023,14.4484483 L47.2576047,22.7822034 C47.1406611,23.3499779 46.6349473,23.7621368 46.0552588,23.7621368 L30.8749094,23.7621368 L31.2361893,25.5158509 L45.9415867,25.5158509 C46.2805521,25.5158509 46.5553573,25.7906561 46.5553573,26.1296215 C46.5553573,26.4686358 46.2805521,26.743441 45.9415867,26.743441 L31.2361405,26.743441 C30.6564519,26.743441 30.1507381,26.3313309 30.0337457,25.7635564 L27.0637697,11.3464896 L24.3694778,10.1770051 C24.0586374,10.0420928 23.9158637,9.68056867 24.0509714,9.36953296 C24.1858837,9.0585949 24.547359,8.91587004 24.8583947,9.0509777 L27.5525401,10.2204134 C27.9188006,10.3794469 28.1855491,10.7077678 28.2661645,11.0987841 L28.6522491,12.9732503 L47.7721075,12.9732503 C48.1428113,12.9732503 48.4896381,13.1379967 48.7237206,13.4253019 Z M46.0552588,22.5345467 L47.7720587,14.2008404 L28.9052281,14.2008404 L30.6220769,22.5345467 L46.0552588,22.5345467 Z M42.7361806,16.1602238 C43.0751949,16.1602238 43.35,16.4349802 43.35,16.7740433 C43.35,17.1130575 43.0751949,17.3878627 42.7361806,17.3878627 L33.939827,17.3878627 C33.6008615,17.3878627 33.3260075,17.1130575 33.3260075,16.7740433 C33.3260075,16.435029 33.6008127,16.1602238 33.939827,16.1602238 L42.7361806,16.1602238 Z M42.2574346,19.3477442 C42.5963512,19.3477442 42.8712052,19.6225982 42.8712052,19.9615636 C42.8712052,20.3005779 42.5963512,20.5753831 42.2573858,20.5753831 L34.418651,20.5753831 C34.0796368,20.5753831 33.8048316,20.3005779 33.8048316,19.9615636 C33.8048316,19.6225493 34.0796368,19.3477442 34.418651,19.3477442 L42.2574346,19.3477442 Z" id="Combined-Shape" transform="translate(36.500000, 20.566730) scale(-1, 1) translate(-36.500000, -20.566730) "></path>
            </g>
        </g>
    </g>
</svg>