<?xml version="1.0" encoding="UTF-8"?>
<svg width="83px" height="30px" viewBox="0 0 83 30" version="1.1" xmlns="http://www.w3.org/2000/svg" xmlns:xlink="http://www.w3.org/1999/xlink">
    <!-- Generator: Sketch 45.2 (43514) - http://www.bohemiancoding.com/sketch -->
    <title>Combined Shape</title>
    <desc>Created with Sketch.</desc>
    <defs></defs>
    <g id="Shop---Design" stroke="none" stroke-width="1" fill="none" fill-rule="evenodd">
        <g id="4" transform="translate(-1181.000000, -3354.000000)" fill="#FFFFFF">
            <g id="DA" transform="translate(1112.000000, 3354.000000)">
                <path d="M81.4285375,5.736 C74.8519316,5.736 69.5018587,11.0513208 69.5018587,17.5843019 C69.5018587,24.1181887 74.8519316,29.4339623 81.4285375,29.4339623 C88.0051435,29.4339623 93.3552163,24.1181887 93.3552163,17.5843019 C93.3552163,11.0513208 88.0051435,5.736 81.4285375,5.736 M81.4285375,27.1698113 C76.1090027,27.1698113 71.7808129,22.8697358 71.7808129,17.5843019 C71.7808129,12.2997736 76.1090027,8.00015094 81.4285375,8.00015094 C86.7480724,8.00015094 91.0762622,12.2997736 91.0762622,17.5843019 C91.0762622,22.8697358 86.7480724,27.1698113 81.4285375,27.1698113 M77.4265573,14.8129358 C76.3085023,14.8129358 75.4028459,15.7136151 75.4028459,16.8235019 C75.4028459,17.9347472 76.3085023,18.8340679 77.4265573,18.8340679 C78.5437006,18.8340679 79.4498128,17.9347472 79.4498128,16.8235019 C79.4498128,15.7136151 78.5437006,14.8129358 77.4265573,14.8129358 M85.4206727,14.8129358 C86.5387276,14.8129358 87.4452956,15.7136151 87.4452956,16.8235019 C87.4452956,17.9347472 86.5387276,18.8340679 85.4206727,18.8340679 C84.3035294,18.8340679 83.3974172,17.9347472 83.3974172,16.8235019 C83.3974172,15.7136151 84.3035294,14.8129358 85.4206727,14.8129358 Z M74.1318276,3.33314717 C73.3610853,3.17148679 72.5474987,2.91835472 72.3519644,2.26492075 C72.2694663,1.98778868 72.2042882,1.29948679 73.387977,0.897373585 C75.129098,0.305524528 79.4887373,0.176015094 82.6947701,0.245750943 C89.9928929,0.403335849 90.3383824,1.28680755 90.4856028,1.66401509 C90.5995505,1.95563774 90.5421209,2.27714717 90.3310897,2.52348679 C89.5867833,3.39337358 84.9933232,3.74839245 80.7740675,3.74839245 C77.9960223,3.74839245 75.3802387,3.59488302 74.1318276,3.33314717 Z M88.1300758,1.96695849 C84.9523021,2.53752453 77.0014867,2.58099623 74.3606346,2.01541132 C77.0274668,1.43850566 84.9709895,1.42673208 88.1300758,1.96695849 Z M102.387714,12.7738415 C102.387714,14.6381434 101.218155,15.8612377 99.3936245,15.8612377 L97.2468496,15.8612377 L97.2468496,9.70410566 L99.3936245,9.70410566 C101.384063,9.70410566 102.387714,11.0743698 102.387714,12.7738415 Z M98.0321773,10.3978415 L99.3936245,10.3978415 C100.799283,10.3978415 101.593727,11.3863698 101.593727,12.7738415 C101.593727,14.1355019 100.825263,15.1670491 99.3936245,15.1670491 L98.0321773,15.1670491 L98.0321773,10.3978415 Z M104.824281,9.71275472 L104.824281,15.8608302 L104.038954,15.8608302 L104.038954,9.71275472 L104.824281,9.71275472 Z M109.040118,12.4444075 C110.33183,12.7305962 111.134477,13.0946717 111.134477,14.2045585 C111.134477,15.3927849 110.157262,15.9216906 108.882871,15.9216906 C107.931635,15.9216906 107.058796,15.6182943 106.360524,15.0545208 L106.73564,14.3956528 C107.111212,14.7855396 107.957615,15.2193509 108.900191,15.2193509 C109.782146,15.2193509 110.296734,14.8982943 110.296734,14.2828981 C110.296734,13.5891623 109.659538,13.3808604 108.507755,13.1032755 C107.250684,12.7998792 106.596168,12.4616151 106.596168,11.4821434 C106.596168,10.3025208 107.538743,9.66086038 108.821795,9.66086038 C109.650878,9.66086038 110.33183,9.93844528 110.855533,10.3632 L110.489078,10.9962566 C110.201018,10.6752 109.546502,10.3545962 108.804475,10.3545962 C107.844579,10.3545962 107.407931,10.7363321 107.407931,11.3603321 C107.407931,12.0196528 107.922975,12.192634 109.040118,12.4444075 Z M117.455202,11.6727396 C117.455202,12.5313057 116.940159,13.3029283 116.154375,13.5021736 L117.65575,15.860966 L116.765591,15.860966 L115.351728,13.6497962 L113.710881,13.6497962 L113.710881,15.860966 L112.925097,15.860966 L112.925097,9.70428679 L115.578711,9.70428679 C116.669419,9.70428679 117.455202,10.7014189 117.455202,11.6727396 Z M113.710881,12.9560604 L113.710881,10.3980226 L115.534956,10.3980226 C116.137055,10.3980226 116.661215,10.9790038 116.661215,11.6727396 C116.661215,12.3488151 116.233227,12.9560604 115.587372,12.9560604 L113.710881,12.9560604 Z M123.522416,12.8172226 L123.522416,9.70401509 L124.3082,9.70401509 L124.3082,12.8172226 C124.3082,14.4822792 123.574832,15.904166 121.671906,15.904166 C119.699243,15.904166 119.027407,14.3953358 119.027407,12.8172226 L119.027407,9.70401509 L119.812735,9.70401509 L119.812735,12.8172226 C119.812735,14.0312604 120.248927,15.2022792 121.663246,15.2022792 C123.103545,15.2022792 123.522416,13.9963925 123.522416,12.8172226 Z M128.804303,9.70428679 C129.89501,9.70428679 130.680794,10.7014189 130.680794,11.6727396 C130.680794,12.6870792 129.947426,13.6497962 128.856719,13.6497962 L127.006208,13.6497962 L127.006208,15.860966 L126.220881,15.860966 L126.220881,9.70428679 L128.804303,9.70428679 Z M128.812963,12.9560604 L127.006208,12.9560604 L127.006208,10.3980226 L128.760547,10.3980226 C129.362647,10.3980226 129.886806,10.9441358 129.886806,11.6727396 C129.886806,12.3750792 129.458819,12.9560604 128.812963,12.9560604 Z M131.554363,10.3978415 L131.554363,9.70410566 L136.616831,9.70410566 L136.616831,10.3978415 L134.478261,10.3978415 L134.478261,15.8612377 L133.692933,15.8612377 L133.692933,10.3978415 L131.554363,10.3978415 Z M138.040494,15.8608302 L138.040494,9.71275472 L138.826277,9.71275472 L138.826277,15.8608302 L138.040494,15.8608302 Z M143.260347,14.8809962 L145.302746,9.70424151 L146.13183,9.70424151 L143.600823,15.8609208 L142.919872,15.8609208 L140.380205,9.70424151 L141.209289,9.70424151 L143.260347,14.8809962 Z M148.218805,15.1671396 L151.640427,15.1671396 L151.640427,15.8608755 L147.433021,15.8608755 L147.433021,9.70419623 L151.561575,9.70419623 L151.561575,10.3979321 L148.218805,10.3979321 L148.218805,12.3921962 L151.125383,12.3921962 L151.125383,13.0429132 L148.218805,13.0429132 L148.218805,15.1671396 Z M108.902834,23.1973585 L108.902834,19.0236226 L110.148966,19.0236226 L110.148966,25.3872453 L109.138022,25.3872453 L105.83992,21.3031698 L105.83992,25.3872453 L104.593332,25.3872453 L104.593332,19.014566 L105.560064,19.014566 L108.902834,23.1973585 Z M115.128117,23.0178566 L115.128117,22.1112906 L117.450371,22.1112906 L117.450371,25.3870642 L116.420284,25.3870642 L116.420284,24.6688755 C115.914356,25.1896302 115.363305,25.4318943 114.712435,25.4318943 C113.068398,25.4318943 111.749795,23.8705358 111.749795,22.1647245 C111.749795,20.4235925 113.059282,18.9695547 114.794478,18.9695547 C115.959479,18.9695547 116.817733,19.5174792 117.232959,20.3611019 L116.30269,21.0430642 C115.995487,20.4149887 115.408428,20.0649509 114.748899,20.0649509 C113.701036,20.0649509 113.005043,21.0521208 113.005043,22.2009509 C113.005043,23.4036679 113.773051,24.3369509 114.820914,24.3369509 C115.408428,24.3369509 115.941248,24.0498566 116.420284,23.4661585 L116.420284,23.0178566 L115.128117,23.0178566 Z M120.676367,22.6406038 L120.676367,24.3011321 L123.883312,24.3011321 L123.883312,25.3870189 L119.429779,25.3870189 L119.429779,19.0143396 L123.802181,19.0143396 L123.802181,20.1006792 L120.676367,20.1006792 L120.676367,21.6353208 L123.37784,21.6353208 L123.37784,22.6406038 L120.676367,22.6406038 Z M127.03743,19.0144302 L127.03743,24.3012226 L130.307729,24.3012226 L130.307729,25.3871094 L125.790842,25.3871094 L125.790842,19.0144302 L127.03743,19.0144302 Z M134.184093,21.6801509 C135.448457,22.0034717 136.243356,22.3983396 136.243356,23.565283 C136.243356,24.9382642 135.132594,25.4590189 133.867775,25.4590189 C132.910158,25.4590189 131.916078,25.1538113 131.175418,24.6330566 L131.726469,23.565283 C131.943426,23.7808302 132.910158,24.3464151 133.886006,24.3464151 C134.563311,24.3464151 134.915638,24.1127547 134.915638,23.690717 C134.915638,23.1251321 134.256108,22.9639245 133.253369,22.6944906 C132.033672,22.362566 131.437498,21.9495849 131.437498,20.9714717 C131.437498,19.6695849 132.476701,18.9699623 133.777072,18.9699623 C134.67179,18.9699623 135.458029,19.3018868 136.01774,19.6786415 L135.466689,20.6839245 C135.304427,20.5046038 134.509072,20.0558491 133.741065,20.0558491 C133.06376,20.0558491 132.720549,20.3157736 132.720549,20.7735849 C132.720549,21.2943396 133.217361,21.4288302 134.184093,21.6801509 Z M99.6508273,19.0144302 L100.662683,19.0144302 L103.183206,25.3871094 L101.863692,25.3871094 L100.156299,20.3516377 L98.4402468,25.3871094 L97.1207323,25.3871094 L99.6508273,19.0144302 Z" id="Combined-Shape"></path>
            </g>
        </g>
    </g>
</svg>