<?xml version="1.0" encoding="UTF-8"?>
<svg width="23px" height="20px" viewBox="0 0 23 20" version="1.1" xmlns="http://www.w3.org/2000/svg" xmlns:xlink="http://www.w3.org/1999/xlink">
    <!-- Generator: Sketch 42 (36781) - http://www.bohemiancoding.com/sketch -->
    <title>Twitter</title>
    <desc>Created with Sketch.</desc>
    <defs></defs>
    <g id="Shop" stroke="none" stroke-width="1" fill="none" fill-rule="evenodd">
        <g id="Desktop-HD" transform="translate(-230.000000, -4956.000000)" fill="#FFFFFF">
            <path d="M252.153846,4959.00367 C251.345488,4959.37179 250.475147,4959.62074 249.562193,4959.73197 C250.494516,4959.15993 251.209901,4958.25286 251.546932,4957.17232 C250.674008,4957.702 249.709402,4958.08734 248.678939,4958.29391 C247.857667,4957.39479 246.683869,4956.83333 245.384814,4956.83333 C242.893883,4956.83333 240.872987,4958.90568 240.872987,4961.46136 C240.872987,4961.82418 240.911726,4962.17642 240.989204,4962.51541 C237.237957,4962.32208 233.912841,4960.48146 231.685336,4957.67816 C231.296653,4958.36409 231.074548,4959.15993 231.074548,4960.0074 C231.074548,4961.61231 231.871285,4963.02919 233.082531,4963.85946 C232.343903,4963.83694 231.646597,4963.6264 231.0371,4963.28211 L231.0371,4963.33905 C231.0371,4965.58222 232.593125,4967.45329 234.659217,4967.87703 C234.280864,4967.98561 233.88185,4968.03991 233.469923,4968.03991 C233.179379,4968.03991 232.895291,4968.0121 232.620243,4967.95781 C233.194875,4969.79577 234.860661,4971.13453 236.836361,4971.17028 C235.291957,4972.41236 233.344666,4973.15258 231.230796,4973.15258 C230.866648,4973.15258 230.506373,4973.1314 230.153846,4973.08902 C232.151498,4974.39996 234.524921,4975.16667 237.07267,4975.16667 C245.375775,4975.16667 249.91472,4968.11538 249.91472,4961.99898 C249.91472,4961.7977 249.910846,4961.59642 249.903098,4961.39912 C250.785061,4960.7463 251.550806,4959.93192 252.153846,4959.00367" id="Twitter"></path>
        </g>
    </g>
</svg>