<?xml version="1.0" encoding="UTF-8"?>
<svg width="23px" height="22px" viewBox="0 0 23 22" version="1.1" xmlns="http://www.w3.org/2000/svg" xmlns:xlink="http://www.w3.org/1999/xlink">
    <!-- Generator: Sketch 42 (36781) - http://www.bohemiancoding.com/sketch -->
    <title>Instagram</title>
    <desc>Created with Sketch.</desc>
    <defs></defs>
    <g id="Shop" stroke="none" stroke-width="1" fill="none" fill-rule="evenodd">
        <g id="Desktop-HD" transform="translate(-285.000000, -4955.000000)" fill="#FFFFFF">
            <path d="M296.153868,4955 C299.141267,4955 299.515865,4955.01266 300.689132,4955.0662 C301.859954,4955.1196 302.659583,4955.30556 303.359264,4955.57751 C304.082611,4955.85858 304.696055,4956.2347 305.307621,4956.84623 C305.919143,4957.45779 306.29527,4958.07123 306.576382,4958.79458 C306.848282,4959.49426 307.034249,4960.29389 307.087651,4961.46471 C307.141183,4962.63798 307.153846,4963.01258 307.153846,4966.00002 C307.153846,4968.98742 307.141183,4969.36202 307.087651,4970.53529 C307.034249,4971.70611 306.848282,4972.50574 306.576382,4973.20542 C306.29527,4973.92877 305.919143,4974.54221 305.307621,4975.15377 C304.696055,4975.7653 304.082611,4976.14142 303.359264,4976.42254 C302.659583,4976.69444 301.859954,4976.8804 300.689132,4976.9338 C299.515865,4976.98734 299.141267,4977 296.153868,4977 C293.166426,4977 292.791827,4976.98734 291.61856,4976.9338 C290.447738,4976.8804 289.648109,4976.69444 288.948428,4976.42254 C288.225081,4976.14142 287.611637,4975.7653 287.000071,4975.15377 C286.388549,4974.54221 286.012423,4973.92877 285.731354,4973.20542 C285.459411,4972.50574 285.273443,4971.70611 285.220042,4970.53529 C285.166509,4969.36202 285.153846,4968.98742 285.153846,4966.00002 C285.153846,4963.01258 285.166509,4962.63798 285.220042,4961.46471 C285.273443,4960.29389 285.459411,4959.49426 285.731354,4958.79458 C286.012423,4958.07123 286.388549,4957.45779 287.000071,4956.84623 C287.611637,4956.2347 288.225081,4955.85858 288.948428,4955.57751 C289.648109,4955.30556 290.447738,4955.1196 291.61856,4955.0662 C292.791827,4955.01266 293.166426,4955 296.153868,4955 Z M296.153868,4956.98198 C293.216727,4956.98198 292.868808,4956.9932 291.708902,4957.04612 C290.636413,4957.09503 290.053971,4957.27423 289.666361,4957.42487 C289.152909,4957.62442 288.786476,4957.86278 288.401573,4958.24773 C288.016626,4958.63263 287.778261,4958.99906 287.578714,4959.51251 C287.428072,4959.90013 287.248872,4960.48257 287.199968,4961.55506 C287.147046,4962.71496 287.135825,4963.06288 287.135825,4966.00002 C287.135825,4968.93712 287.147046,4969.28504 287.199968,4970.44494 C287.248872,4971.51743 287.428072,4972.09987 287.578714,4972.48749 C287.778261,4973.00094 288.01667,4973.36737 288.401573,4973.75227 C288.786476,4974.13722 289.152909,4974.37558 289.666361,4974.57513 C290.053971,4974.72577 290.636413,4974.90497 291.708902,4974.95388 C292.868677,4975.0068 293.216509,4975.01802 296.153868,4975.01802 C299.091184,4975.01802 299.439059,4975.0068 300.59879,4974.95388 C301.671279,4974.90497 302.253721,4974.72577 302.641331,4974.57513 C303.154783,4974.37558 303.521216,4974.13722 303.906119,4973.75227 C304.291066,4973.36737 304.529431,4973.00094 304.728978,4972.48749 C304.879621,4972.09987 305.05882,4971.51743 305.107724,4970.44494 C305.160646,4969.28504 305.171868,4968.93712 305.171868,4966.00002 C305.171868,4963.06288 305.160646,4962.71496 305.107724,4961.55506 C305.05882,4960.48257 304.879621,4959.90013 304.728978,4959.51251 C304.529431,4958.99906 304.291066,4958.63263 303.906119,4958.24773 C303.521216,4957.86278 303.154783,4957.62442 302.641331,4957.42487 C302.253721,4957.27423 301.671279,4957.09503 300.59879,4957.04612 C299.438884,4956.9932 299.090965,4956.98198 296.153868,4956.98198 Z M296.153868,4960.35135 C299.273527,4960.35135 301.802491,4962.88032 301.802491,4966.00002 C301.802491,4969.11968 299.273527,4971.64865 296.153868,4971.64865 C293.034166,4971.64865 290.505201,4969.11968 290.505201,4966.00002 C290.505201,4962.88032 293.034166,4960.35135 296.153868,4960.35135 Z M296.153868,4969.66667 C298.1789,4969.66667 299.820513,4968.02505 299.820513,4966.00002 C299.820513,4963.97495 298.1789,4962.33333 296.153868,4962.33333 C294.128793,4962.33333 292.487179,4963.97495 292.487179,4966.00002 C292.487179,4968.02505 294.128793,4969.66667 296.153868,4969.66667 Z M303.345684,4960.12819 C303.345684,4960.85721 302.754685,4961.44817 302.025661,4961.44817 C301.296681,4961.44817 300.705681,4960.85721 300.705681,4960.12819 C300.705681,4959.39916 301.296681,4958.80816 302.025661,4958.80816 C302.754685,4958.80816 303.345684,4959.39916 303.345684,4960.12819 Z" id="Instagram"></path>
        </g>
    </g>
</svg>