<?xml version="1.0" encoding="UTF-8"?>
<svg width="22px" height="22px" viewBox="0 0 22 22" version="1.1" xmlns="http://www.w3.org/2000/svg" xmlns:xlink="http://www.w3.org/1999/xlink">
    <!-- Generator: Sketch 42 (36781) - http://www.bohemiancoding.com/sketch -->
    <title>Facebook</title>
    <desc>Created with Sketch.</desc>
    <defs></defs>
    <g id="Shop" stroke="none" stroke-width="1" fill="none" fill-rule="evenodd">
        <g id="Desktop-HD" transform="translate(-176.000000, -4955.000000)" fill="#FFFFFF">
            <path d="M187.750913,4977 L177.214231,4977 C176.543433,4977 176,4976.45623 176,4975.78569 L176,4956.21422 C176,4955.54351 176.543519,4955 177.214231,4955 L196.785854,4955 C197.456396,4955 198,4955.54351 198,4956.21422 L198,4975.78569 C198,4976.45631 197.456311,4977 196.785854,4977 L191.179682,4977 L191.179682,4968.48039 L194.039322,4968.48039 L194.467513,4965.16014 L191.179682,4965.16014 L191.179682,4963.04038 C191.179682,4962.07909 191.446618,4961.424 192.825091,4961.424 L194.583268,4961.42324 L194.583268,4958.45358 C194.279198,4958.41312 193.235526,4958.32272 192.021295,4958.32272 C189.486382,4958.32272 187.750913,4959.87003 187.750913,4962.71155 L187.750913,4965.16014 L184.883931,4965.16014 L184.883931,4968.48039 L187.750913,4968.48039 L187.750913,4977 L187.750913,4977 Z" id="Facebook"></path>
        </g>
    </g>
</svg>