<?xml version="1.0" encoding="UTF-8"?>
<svg width="200px" height="35px" viewBox="0 0 200 35" version="1.1" xmlns="http://www.w3.org/2000/svg" xmlns:xlink="http://www.w3.org/1999/xlink">
    <!-- Generator: Sketch 42 (36781) - http://www.bohemiancoding.com/sketch -->
    <title>ndp-logo</title>
    <desc>Created with Sketch.</desc>
    <defs></defs>
    <g id="V3" stroke="none" stroke-width="1" fill="none" fill-rule="evenodd">
        <g id="Artboard" fill="#00285A">
            <path d="M54.7686071,26.2365942 C54.7686071,26.2365942 50.7831401,17.9346473 48.7488761,13.673349 L48.7488761,25.8492835 C48.7488761,26.3472125 48.3641728,26.7348167 47.8693046,26.7348167 C47.3747278,26.7348167 46.9897332,26.3472125 46.9897332,25.8492835 L46.9897332,9.79906803 C46.9897332,9.38388266 47.2648543,9.02415314 47.676953,8.94111607 C48.0619477,8.85807899 48.4740464,9.05202778 48.666398,9.41146388 C48.666398,9.41146388 52.624761,17.7134108 54.6861291,21.9750025 L54.6861291,9.79906803 C54.6861291,9.30084558 55.0708323,8.91353485 55.5657006,8.91353485 C56.0602774,8.91353485 56.445272,9.30084558 56.445272,9.79906803 L56.445272,25.8492835 C56.445272,26.2644689 56.1704424,26.623905 55.7580522,26.7072355 C55.373349,26.8178538 54.9609588,26.5963238 54.7686071,26.2365942 Z M60.4031396,13.1197001 C60.4031396,11.7916937 61.4750626,10.6846305 62.8218153,10.6846305 C64.1411725,10.6846305 65.2404911,11.7916937 65.2404911,13.1197001 L65.2404911,22.5284167 C65.2404911,23.8842977 64.1411725,24.9637797 62.8218153,24.9637797 C61.4750626,24.9637797 60.4031396,23.8842977 60.4031396,22.5284167 L60.4031396,13.1197001 Z M58.6439966,22.5284167 L58.6439966,13.1197001 C58.6439966,10.7952488 60.5130131,8.91356419 62.8218153,8.91356419 C65.1306175,8.91356419 66.999634,10.7952488 66.999634,13.1197001 L66.999634,22.5284167 C66.999634,24.852868 65.1306175,26.7345526 62.8218153,26.7345526 C60.5130131,26.7345526 58.6439966,24.852868 58.6439966,22.5284167 Z M68.9809139,22.5285047 L68.9809139,13.1197881 C68.9809139,11.2105222 70.2451886,9.55007417 72.0868095,9.05185173 C73.9007435,8.5539227 75.8251339,9.38400002 76.7871834,11.0165734 C77.0069306,11.4317588 76.86937,11.9851437 76.4569798,12.2342549 C76.0448811,12.4833661 75.4949303,12.317292 75.2477876,11.9021066 C74.6978369,10.961411 73.5985183,10.4907698 72.5265952,10.7677556 C71.4820677,11.0441547 70.7400568,12.0127249 70.7400568,13.1197881 L70.7400568,22.5285047 C70.7400568,23.6352745 71.4820677,24.6038448 72.5265952,24.8808306 C73.5985183,25.1572296 74.6978369,24.6868818 75.2477876,23.7458928 C75.4949303,23.3310009 76.0448811,23.1925079 76.4569798,23.4140379 C76.86937,23.6631491 77.0069306,24.216534 76.7871834,24.631426 C75.8251339,26.291874 73.9007435,27.0946636 72.0868095,26.5961477 C70.2451886,26.0982187 68.9809139,24.438064 68.9809139,22.5285047 Z M86.3164862,8.91353485 C86.8113544,8.91353485 87.1960576,9.30084558 87.1960576,9.79906803 L87.1960576,25.8492835 C87.1960576,26.3472125 86.8113544,26.7348167 86.3164862,26.7348167 C85.8490135,26.7348167 85.4369147,26.3472125 85.4369147,25.8492835 L85.4369147,18.4328698 L80.5992717,18.4328698 L80.5992717,25.8492835 C80.5992717,26.3472125 80.2142771,26.7348167 79.7197003,26.7348167 C79.2522276,26.7348167 78.8401288,26.3472125 78.8401288,25.8492835 L78.8401288,9.79906803 C78.8401288,9.30084558 79.2522276,8.91353485 79.7197003,8.91353485 C80.2142771,8.91353485 80.5992717,9.30084558 80.5992717,9.79906803 L80.5992717,16.6618034 L85.4369147,16.6618034 L85.4369147,9.79906803 C85.4369147,9.30084558 85.8490135,8.91353485 86.3164862,8.91353485 Z M89.5977132,9.90971566 C89.5977132,9.41149322 89.9824164,9.02418248 90.4772847,9.02418248 L95.9744605,9.02418248 C96.4693288,9.02418248 96.854032,9.41149322 96.854032,9.90971566 C96.854032,10.4079381 96.4693288,10.7952488 95.9744605,10.7952488 L91.3568561,10.7952488 L91.3568561,16.6618328 L95.4248012,16.6618328 C95.9196695,16.6618328 96.3043727,17.0491435 96.3043727,17.547366 C96.3043727,18.0455884 95.9196695,18.4328991 95.4248012,18.4328991 L91.3568561,18.4328991 L91.3568561,24.852868 L95.9744605,24.852868 C96.4693288,24.852868 96.854032,25.2404721 96.854032,25.7384011 C96.854032,26.2366236 96.4693288,26.6239343 95.9744605,26.6239343 L90.4772847,26.6239343 C89.9824164,26.6239343 89.5977132,26.2366236 89.5977132,25.7384011 L89.5977132,9.90971566 Z M104.66275,22.5838432 C104.717541,21.8643842 104.470398,21.1170505 103.948134,20.5912469 L99.550277,16.0529627 C98.7254966,15.1953042 98.2860023,14.0052039 98.3958759,12.8153971 C98.4783539,11.5977156 99.0830957,10.4909458 100.045145,9.77119339 C100.979508,9.05202778 102.216387,8.7474607 103.398475,8.99657192 C104.552876,9.24568314 105.569717,9.96514217 106.174458,11.0167495 C106.421893,11.4316415 106.284623,11.9850263 105.844546,12.2341376 C105.432448,12.4832488 104.882497,12.3171746 104.66275,11.9022827 C104.305442,11.2934419 103.728096,10.8782566 103.040876,10.7397636 C102.353656,10.6015641 101.639332,10.7676383 101.089381,11.1825302 C100.539722,11.5977156 100.20981,12.2341376 100.155019,12.9260154 C100.099936,13.6454744 100.34737,14.309771 100.814843,14.8077 L105.2127,19.3738588 C106.064585,20.259392 106.504371,21.4767801 106.421893,22.7223362 C106.312019,23.9675989 105.707277,25.1019498 104.717541,25.8492835 C103.728096,26.5963238 102.463821,26.9008908 101.254337,26.6517796 C100.045145,26.4026684 99.0006177,25.6553347 98.3681889,24.5761462 C98.1484418,24.1333796 98.2860023,23.6078693 98.6981011,23.3587581 C99.1104913,23.1096469 99.6601506,23.2478464 99.9075847,23.690613 C100.264892,24.327035 100.89703,24.7698015 101.611937,24.9082945 C102.32626,25.0467874 103.068563,24.8807133 103.645618,24.4379467 C104.250651,23.9951801 104.607667,23.3308835 104.66275,22.5838432 Z M117.548808,10.6686728 C118.89556,10.6686728 119.967775,11.775736 119.967775,13.1040358 L119.967775,22.2912224 C119.967775,23.6471034 118.89556,24.726292 117.548808,24.726292 L115.129841,24.726292 L115.129841,10.6686728 L117.548808,10.6686728 Z M117.548808,8.89760649 C119.857901,8.89760649 121.726918,10.7792911 121.726918,13.1040358 L121.726918,22.2912224 C121.726918,24.6156737 119.857901,26.4973583 117.548808,26.4973583 L114.250269,26.4973583 C113.755692,26.4973583 113.370698,26.1100476 113.370698,25.6118251 L113.370698,9.78313966 C113.370698,9.28491722 113.755692,8.89760649 114.250269,8.89760649 L117.548808,8.89760649 Z M124.167065,9.78313966 C124.167065,9.28491722 124.551768,8.89760649 125.046637,8.89760649 L130.543813,8.89760649 C131.038681,8.89760649 131.423384,9.28491722 131.423384,9.78313966 C131.423384,10.2813621 131.038681,10.6686728 130.543813,10.6686728 L125.926208,10.6686728 L125.926208,16.5352568 L129.994153,16.5352568 C130.489021,16.5352568 130.873725,16.9225675 130.873725,17.42079 C130.873725,17.9190124 130.489021,18.3063231 129.994153,18.3063231 L125.926208,18.3063231 L125.926208,24.726292 L130.543813,24.726292 C131.038681,24.726292 131.423384,25.1138961 131.423384,25.6118251 C131.423384,26.1100476 131.038681,26.4973583 130.543813,26.4973583 L125.046637,26.4973583 C124.551768,26.4973583 124.167065,26.1100476 124.167065,25.6118251 L124.167065,9.78313966 Z M142.380453,10.6686728 C143.699519,10.6686728 144.79942,11.775736 144.79942,13.1040358 L144.79942,14.6535721 C144.79942,16.0094531 143.699519,17.0889351 142.380453,17.0889351 L139.961486,17.0889351 L139.961486,10.6686728 L142.380453,10.6686728 Z M139.081915,8.89760649 L142.380453,8.89760649 C144.689255,8.89760649 146.558563,10.7792911 146.558563,13.1040358 L146.558563,14.6535721 C146.558563,16.9780234 144.689255,18.8600014 142.380453,18.8600014 L139.961486,18.8600014 L139.961486,25.7227368 C139.961486,26.2206659 139.576783,26.60827 139.081915,26.60827 C138.587338,26.60827 138.202343,26.2206659 138.202343,25.7227368 L138.202343,9.78313966 C138.202343,9.28491722 138.587338,8.89760649 139.081915,8.89760649 Z M148.458892,25.8333551 L148.458892,9.78313966 C148.458892,9.28521064 148.870991,8.89760649 149.338464,8.89760649 C149.833332,8.89760649 150.218035,9.28521064 150.218035,9.78313966 L150.218035,25.8333551 C150.218035,26.3315776 149.833332,26.7188883 149.338464,26.7188883 C148.870991,26.7188883 148.458892,26.3315776 148.458892,25.8333551 Z M160.263638,8.89760649 C160.758506,8.89760649 161.143209,9.28491722 161.143209,9.78313966 C161.143209,10.2813621 160.758506,10.6686728 160.263638,10.6686728 L157.569841,10.6686728 L157.569841,25.7227368 C157.569841,26.2206659 157.185138,26.6079766 156.690269,26.6079766 C156.223379,26.6079766 155.810698,26.2206659 155.810698,25.7227368 L155.810698,10.6686728 L153.117192,10.6686728 C152.650011,10.6686728 152.237621,10.2813621 152.237621,9.78313966 C152.237621,9.28491722 152.650011,8.89760649 153.117192,8.89760649 L160.263638,8.89760649 Z M161.954352,22.5179523 L161.954352,13.1092356 C161.954352,11.1999697 163.218626,9.53952168 165.060247,9.04129923 C166.874181,8.54337021 168.798572,9.37344753 169.760621,11.006021 C169.980368,11.4212063 169.842808,11.9745912 169.430418,12.2237024 C169.018319,12.4728136 168.468368,12.3067395 168.221226,11.8915541 C167.671275,10.9508585 166.571956,10.4802173 165.500033,10.7572032 C164.455506,11.0336022 163.713495,12.0021724 163.713495,13.1092356 L163.713495,22.5179523 C163.713495,23.624722 164.455506,24.5932923 165.500033,24.8702781 C166.571956,25.1466772 167.671275,24.6763293 168.221226,23.7356337 C168.468368,23.3204484 169.018319,23.1819554 169.430418,23.4034854 C169.842808,23.6525967 169.980368,24.2059815 169.760621,24.6211669 C168.798572,26.2813216 166.874181,27.0841111 165.060247,26.5855952 C163.218626,26.0876662 161.954352,24.4275115 161.954352,22.5179523 Z M179.687258,8.89760649 C180.182127,8.89760649 180.56683,9.28491722 180.56683,9.78313966 L180.56683,25.8333551 C180.56683,26.3312842 180.182127,26.7188883 179.687258,26.7188883 C179.219786,26.7188883 178.807687,26.3312842 178.807687,25.8333551 L178.807687,18.4169414 L173.970044,18.4169414 L173.970044,25.8333551 C173.970044,26.3312842 173.585049,26.7188883 173.090472,26.7188883 C172.623,26.7188883 172.210901,26.3312842 172.210901,25.8333551 L172.210901,9.78313966 C172.210901,9.28491722 172.623,8.89760649 173.090472,8.89760649 C173.585049,8.89760649 173.970044,9.28491722 173.970044,9.78313966 L173.970044,16.6461685 L178.807687,16.6461685 L178.807687,9.78313966 C178.807687,9.28491722 179.219786,8.89760649 179.687258,8.89760649 Z M183.007269,9.78313966 C183.007269,9.28491722 183.391972,8.89760649 183.88684,8.89760649 L189.384016,8.89760649 C189.878884,8.89760649 190.263587,9.28491722 190.263587,9.78313966 C190.263587,10.2813621 189.878884,10.6686728 189.384016,10.6686728 L184.766411,10.6686728 L184.766411,16.5352568 L188.834357,16.5352568 C189.329225,16.5352568 189.713928,16.9225675 189.713928,17.42079 C189.713928,17.9190124 189.329225,18.3063231 188.834357,18.3063231 L184.766411,18.3063231 L184.766411,24.726292 L189.384016,24.726292 C189.878884,24.726292 190.263587,25.1138961 190.263587,25.6118251 C190.263587,26.1100476 189.878884,26.4973583 189.384016,26.4973583 L183.88684,26.4973583 C183.391972,26.4973583 183.007269,26.1100476 183.007269,25.6118251 L183.007269,9.78313966 Z M193.403506,13.1040358 C193.403506,11.775736 194.475429,10.6686728 195.822181,10.6686728 C197.141538,10.6686728 198.240857,11.775736 198.240857,13.1040358 L198.240857,22.5127524 C198.240857,23.8686334 197.141538,24.947822 195.822181,24.947822 C194.475429,24.947822 193.403506,23.8686334 193.403506,22.5127524 L193.403506,13.1040358 Z M191.644363,22.5127524 L191.644363,13.1040358 C191.644363,10.7792911 193.513379,8.89760649 195.822181,8.89760649 C198.130984,8.89760649 200,10.7792911 200,13.1040358 L200,22.5127524 C200,24.8372037 198.130984,26.7188883 195.822181,26.7188883 C193.513379,26.7188883 191.644363,24.8372037 191.644363,22.5127524 Z M7.91708376,5.93786086 L5.57174435,4.01098996 L5.57174435,0 L22.7721906,0 C26.9103644,0 30.2770832,3.36786048 30.2770832,7.5074376 L30.2770832,24.3089772 L27.9317438,22.3819127 L27.9317438,7.5074376 C27.9317438,4.66147833 25.6171851,2.34594111 22.7721906,2.34594111 L7.91708376,2.34594111 L7.91708376,5.93786086 Z M27.7323464,29.0495057 L29.656241,30.6301208 C28.499736,33.2880407 25.84988,35.1517799 22.7721906,35.1517799 L5.57174435,35.1517799 L5.57174435,10.8424154 L7.91708376,12.7692863 L7.91708376,32.8056452 L22.7721906,32.8056452 C25.1297262,32.8056452 27.1184734,31.2137981 27.7323464,29.0495057 Z M9.67813069,9.28240523 L9.67813069,12.3185341 L2.34514582,6.29391561 L2.34514582,28.4047108 L0,28.4047108 L0,1.33072222 L9.67813069,9.28240523 Z M33.5036623,6.74670123 L35.8490018,6.74670123 L35.8490018,33.8206898 L22.5772652,22.9167307 C23.3130997,22.5621477 23.9701432,22.0692948 24.5149046,21.4722553 L33.5036623,28.8574964 L33.5036623,6.74670123 Z M22.3599994,17.2059501 C22.3599994,18.5965893 21.2290483,19.727924 19.8388805,19.727924 L13.4891378,19.727924 L13.4891378,7.91978798 L19.838687,7.91978798 C21.2288547,7.91978798 22.3599994,9.05092897 22.3599994,10.4417618 L22.3599994,17.2059501 Z M19.838687,5.57365321 L11.1437984,5.57365321 L11.1437984,20.9008945 L11.1437984,22.0740587 L11.1437984,28.4046527 L13.4891378,28.4046527 L13.4891378,22.0740587 L19.8388805,22.0740587 C22.5224212,22.0740587 24.7053388,19.8902072 24.7053388,17.2059501 L24.7053388,10.4417618 C24.7053388,7.75731112 22.522034,5.57365321 19.838687,5.57365321 L19.838687,5.57365321 Z" id="ndp-logo"></path>
        </g>
    </g>
</svg>