<?xml version="1.0" encoding="UTF-8"?>
<svg width="536px" height="368px" viewBox="0 0 536 368" version="1.1" xmlns="http://www.w3.org/2000/svg" xmlns:xlink="http://www.w3.org/1999/xlink">
    <!-- Generator: Sketch 42 (36781) - http://www.bohemiancoding.com/sketch -->
    <title>Page 1</title>
    <desc>Created with Sketch.</desc>
    <defs>
        <polygon id="path-1" points="358.526573 147.027176 0.692732668 147.027176 0.692732668 0.202120527 358.526573 0.202120527 358.526573 147.027176"></polygon>
        <polygon id="path-3" points="0.617005617 0.421032369 363.049242 0.421032369 363.049242 159.559907 0.617005617 159.559907 0.617005617 0.421032369"></polygon>
        <path d="M6.76116183,0.159650722 L25.4989212,0.159650722 C30.0063624,0.159650722 33.6738479,3.82270658 33.6738479,8.32708462 L33.6738479,26.6044933 L31.1191369,24.5074996 L31.1191369,8.32708462 C31.1191369,5.23060318 28.597787,2.71183459 25.4989212,2.71183459 L9.31661411,2.71183459 L9.31661411,6.61919318 L6.76116183,4.52294208 L6.76116183,0.159650722 Z M0.690943292,31.0606048 L0.690943292,1.60690308 L11.2337593,10.2577445 L11.2337593,13.5599155 L3.24565422,7.00606772 L3.24565422,31.0606048 L0.690943292,31.0606048 Z M12.8313804,6.22266534 L22.3029378,6.22266534 C25.2261024,6.22266534 27.6043707,8.59886213 27.6043707,11.5186139 L27.6043707,18.8773984 C27.6043707,21.7971502 25.2268437,24.173347 22.3029378,24.173347 L15.3860913,24.173347 L15.3860913,31.0606048 L12.8313804,31.0606048 L12.8313804,24.173347 L12.8313804,22.8968837 L12.8313804,6.22266534 Z M15.3860913,8.7748492 L15.3860913,21.6204205 L22.3029378,21.6204205 C23.817527,21.6204205 25.0496598,20.3899961 25.0496598,18.8773984 L25.0496598,11.5186139 C25.0496598,10.0052736 23.8167856,8.7748492 22.3029378,8.7748492 L15.3860913,8.7748492 Z M37.1886141,7.49912855 L39.743325,7.49912855 L39.743325,36.9520878 L25.2861521,25.0896678 C26.0875574,24.7042784 26.8037068,24.1674065 27.3975325,23.5184077 L37.1886141,31.5529231 L37.1886141,7.49912855 Z M6.76116183,38.4008252 L6.76116183,11.9544975 L9.31661411,14.0507486 L9.31661411,35.8478988 L25.4989212,35.8478988 C28.0662351,35.8478988 30.2332172,34.1162454 30.9011784,31.7615829 L32.9977317,33.4813553 C31.7381687,36.3728898 28.8505892,38.4008252 25.4989212,38.4008252 L6.76116183,38.4008252 Z" id="path-5"></path>
    </defs>
    <g id="Shop" stroke="none" stroke-width="1" fill="none" fill-rule="evenodd">
        <g id="Desktop-HD" transform="translate(-729.000000, -964.000000)">
            <g id="Page-1" transform="translate(729.000000, 964.000000)">
                <path d="M398.876966,88.4599402 L401.639256,89.8700645 L402.660103,90.0185768 L404.265879,88.8601809 L404.427494,87.8161394 L402.83877,85.6040487 L398.876966,88.4599402 Z M393.857248,92.0925511 L395.445232,94.3031566 L396.50018,94.5021631 L398.629353,92.9680311 L398.799124,91.9314152 L396.034609,90.5227761 L393.857248,92.0925511 Z M407.716889,90.7492573 L403.908546,93.5078733 L401.884645,93.1692652 L401.556225,95.1882899 L397.268225,98.2788309 L394.141929,97.7590378 L388.403096,89.7898679 L390.906653,87.9847009 L391.800728,89.2284914 L400.788922,82.7511274 L399.89633,81.5073369 L402.537038,79.6034092 L408.241768,87.5243127 L407.716889,90.7492573 Z" id="Fill-1" fill="#BD2639"></path>
                <polygon id="Fill-2" fill="#BD2639" points="417.28927 102.13822 413.258521 104.536694 411.647555 101.817433 412.963461 101.034774 411.101918 97.8981939 407.8874 99.8095472 410.497713 104.212937 407.824385 105.803504 405.214814 101.399371 401.549552 103.578789 403.409613 106.716854 404.714399 105.940877 406.326847 108.659395 402.317597 111.044503 402.311666 111.033364 402.300546 111.039305 396.274067 100.875123 398.957774 99.2793582 399.720628 100.565475 409.315251 94.8588897 408.533862 93.5401004 411.239068 91.9324548"></polygon>
                <polygon id="Fill-3" fill="#BD2639" points="423.896304 115.726576 419.651303 117.715898 418.313898 114.851838 419.69875 114.201354 418.155989 110.897698 414.767994 112.484552 416.934235 117.121849 414.119308 118.442123 411.953068 113.804084 408.09283 115.612221 409.636332 118.917362 411.010805 118.273562 412.349693 121.137621 408.126191 123.11729 408.121001 123.106152 408.10914 123.110607 403.108697 112.40287 405.934003 111.078883 406.567862 112.434058 416.675502 107.697258 416.026816 106.310153 418.875845 104.975028"></polygon>
                <path d="M419.367067,125.987587 L420.330088,128.535316 L421.297557,129.000902 L424.500212,127.786071 L424.930199,126.830395 L423.953833,124.247766 L419.367067,125.987587 Z M428.570995,127.529888 L427.234331,130.520925 L420.972102,132.883013 L418.29655,131.673381 L415.843405,134.254525 L416.390525,135.698807 L413.448085,136.813391 L411.41084,131.421652 L414.351798,130.30781 L414.515637,130.739238 L416.88575,128.423189 L416.391266,127.115538 L413.557064,128.202648 L413.930708,129.192483 L410.98975,130.30781 L408.81832,124.564097 L411.760019,123.448027 L412.30195,124.881913 L422.71577,120.932971 L422.172356,119.501313 L425.114796,118.385243 L428.570995,127.529888 Z" id="Fill-4" fill="#BD2639"></path>
                <polygon id="Fill-5" fill="#BD2639" points="432.60649 140.679612 430.997007 143.542187 428.206545 144.34044 427.243524 140.9603 428.644686 140.559317 429.073189 139.804875 428.463054 137.664812 427.640891 137.216305 425.575474 137.807384 423.96525 145.274583 418.687541 146.783468 415.779945 145.173594 414.166014 139.513048 415.751032 136.657157 418.600061 135.841824 419.574943 139.218251 418.153765 139.638541 417.716365 140.408577 418.334656 142.533046 419.160526 142.992691 421.144393 142.425374 422.751651 134.947037 428.123513 133.41142 430.989593 135.007927"></polygon>
                <polygon id="Fill-6" fill="#BD2639" points="185.937881 34.5041595 188.333201 38.5384961 185.61984 40.1550525 184.838451 38.838491 181.706965 40.7038055 183.618921 43.9228095 188.012194 41.3052803 189.60166 43.9807293 185.208387 46.5982586 187.387231 50.2679975 190.517234 48.4026831 189.741776 47.0965174 192.455137 45.4792184 194.838595 49.4927633 194.828216 49.4994464 194.834147 49.5105848 184.690921 55.5528077 183.095524 52.8669628 184.378811 52.1021244 178.674822 42.4956063 177.359657 43.2782662 175.752398 40.5723721"></polygon>
                <polygon id="Fill-7" fill="#BD2639" points="200.830823 27.2069334 202.181572 30.0531717 200.811547 30.7043981 205.595514 40.7765022 206.965539 40.1230481 208.31703 42.9678012 202.308344 45.8311183 200.956853 42.9863652 201.691536 42.6366188 196.606579 38.5272835 199.136825 43.8544196 199.915249 43.4831389 201.265998 46.327892 196.167697 48.7568106 194.816947 45.9120575 196.198092 45.2541481 191.414867 35.183529 190.03298 35.8421811 188.682231 32.997428 194.756156 30.1029233 196.107647 32.9469338 195.548665 33.2135134 200.080571 36.6968694 197.883935 32.1011563 197.028411 32.50808 195.677661 29.6633269"></polygon>
                <polygon id="Fill-8" fill="#BD2639" points="214.756221 22.0111564 216.367187 26.4071205 213.42623 27.4875474 212.902833 26.0603442 211.831574 26.4539018 215.667347 36.8861483 217.080371 36.3656127 218.164232 39.3232351 211.985776 41.5954733 210.901914 38.6378509 212.349781 38.1054343 208.53699 27.6657622 207.385665 28.0890222 207.909062 29.5154829 204.956243 30.6003652 203.346019 26.2058863"></polygon>
                <path d="M224.542262,27.5698975 L227.168884,26.8614938 L227.726383,25.9436878 L226.836015,22.6326061 L225.928596,22.1083577 L223.266389,22.8264147 L224.542262,27.5698975 Z M226.982804,18.5492604 L229.822195,20.1754701 L231.550295,26.6491212 L230.086118,29.1983349 L232.408785,31.8968033 L233.897426,31.4958201 L234.715883,34.5366095 L229.157941,36.0365837 L228.340226,32.9943092 L228.78578,32.8747568 L226.71814,30.2832172 L225.370356,30.6478149 L226.17102,33.5794477 L227.191125,33.3039574 L228.00884,36.3462318 L222.088375,37.9434816 L221.269919,34.9026923 L222.74744,34.5039368 L219.851706,23.7345674 L218.374184,24.1340655 L217.556469,21.091791 L226.982804,18.5492604 Z" id="Fill-9" fill="#BD2639"></path>
                <polygon id="Fill-10" fill="#BD2639" points="243.990165 15.205209 244.80195 19.8283969 241.691963 20.3764073 241.4273 18.8667797 237.83988 19.4994421 238.487084 23.1884876 243.521629 22.3011267 244.059853 25.3679056 239.025308 26.2545241 239.762957 30.4596498 243.351117 29.8269874 243.088677 28.330726 246.197922 27.7819731 247.004517 32.3828841 246.992655 32.3843692 246.994879 32.3962502 235.370425 34.4442348 234.830719 31.3648323 236.301568 31.1049358 234.368854 20.0972041 232.86242 20.3637837 232.317524 17.2598767"></polygon>
                <path d="M252.800656,22.4114713 L255.498449,22.178307 L256.208667,21.3726278 L255.912866,17.9553598 L255.123323,17.2788862 L252.377342,17.5172485 L252.800656,22.4114713 Z M256.786183,13.9611215 L259.28381,16.0633131 L259.849464,22.740426 L257.816667,25.1634042 L253.074216,25.5755258 L253.328501,28.5190396 L254.853469,28.3876062 L255.13296,31.6222041 L248.527483,32.194719 L248.247992,28.9593786 L249.772219,28.8286877 L248.844042,17.8113028 L247.296092,17.9457065 L247.024014,14.8076416 L256.786183,13.9611215 Z" id="Fill-11" fill="#BD2639"></path>
                <path d="M267.16731,21.7109388 L269.886601,21.7547499 L270.676145,21.0270396 L270.731747,17.5971481 L270.002994,16.8427056 L267.246635,16.7974094 L267.16731,21.7109388 Z M271.996499,13.7128089 L274.27765,16.0615309 L274.156809,22.7616633 L272.047653,24.8066777 L273.537036,28.0420181 L275.079055,28.0680078 L275.028643,31.2172111 L269.2735,31.1229057 L269.324654,27.9737024 L269.786518,27.9818706 L268.511387,24.9202896 L267.116156,24.8980127 L267.078347,27.9380595 L268.134778,27.9543958 L268.083625,31.1035991 L261.952615,31.0048385 L262.003769,27.8556352 L263.533185,27.8801397 L263.714076,16.7298363 L262.184659,16.703104 L262.235813,13.5546433 L271.996499,13.7128089 Z" id="Fill-12" fill="#BD2639"></path>
                <polygon id="Fill-13" fill="#BD2639" points="288.989849 14.8498933 288.57469 19.5265456 285.42986 19.2480851 285.566269 17.7198935 281.937334 17.3976218 281.605949 21.1289933 286.698319 21.5812133 286.423276 24.6836352 281.331647 24.2314153 280.954297 28.4825798 284.583232 28.8055941 284.716676 27.2907686 287.862247 27.5714569 287.449312 32.2228621 287.436709 32.2228621 287.435968 32.2340005 275.680294 31.1877314 275.956079 28.074171 277.443979 28.2070895 278.431464 17.0731224 276.906496 16.9387188 277.185246 13.8006539"></polygon>
                <polygon id="Fill-14" fill="#BD2639" points="305.331547 17.6616767 304.765893 20.7603858 303.272803 20.4871232 301.269661 31.4569842 302.762751 31.7309894 302.197097 34.830441 295.650928 33.6297191 296.217323 30.5324951 297.017246 30.6787797 295.294336 24.3655219 294.234198 30.1693825 295.08305 30.3238353 294.516654 33.4225444 288.96316 32.4052352 289.528814 29.3065261 291.033766 29.5827589 293.036167 18.6121554 291.531957 18.3366651 292.09687 15.2372134 298.714209 16.4490738 298.149296 19.5477829 297.53916 19.4356561 299.180521 24.9172451 300.084233 19.9027273 299.15235 19.7311956 299.718004 16.6339716"></polygon>
                <polygon id="Fill-15" fill="#BD2639" points="319.673588 21.58953 318.406611 26.1087592 315.367054 25.2548135 315.78073 23.7786013 312.273378 22.7924796 311.262169 26.3991008 316.184769 27.783978 315.344813 30.7809562 310.422213 29.3975641 309.271629 33.5083846 312.778241 34.4922785 313.18821 33.030175 316.228509 33.8848632 314.968205 38.3818157 314.956343 38.3781029 314.953378 38.3899838 303.589881 35.1947417 304.432802 32.18514 305.871032 32.5890934 308.886124 21.8278922 307.413793 21.4142855 308.262645 18.3816643"></polygon>
                <polygon id="Fill-16" fill="#BD2639" points="335.022685 27.2895805 333.898049 30.2308666 332.470199 29.6850839 328.129562 40.9779592 325.269413 42.2373435 319.67811 40.0957961 318.32736 37.1292629 322.614619 25.9076736 321.186027 25.3596632 322.309922 22.4176346 328.070995 24.6252699 326.946359 27.566556 325.903272 27.1678004 322.137186 37.027532 322.498226 37.8168749 324.569573 38.6232967 325.405081 38.2401349 329.158564 28.4153038 328.125856 28.0187759 329.250492 25.0774898"></polygon>
                <path d="M338.587567,37.9417737 L341.027368,39.146951 L342.051921,38.8239368 L343.565028,35.7475045 L343.228453,34.7554423 L340.755291,33.5339287 L338.587567,37.9417737 Z M346.365869,32.7787436 L347.426749,35.8774528 L344.459103,41.8840327 L341.67902,42.830056 L341.645659,46.3921235 L343.028287,47.0752801 L341.638245,49.9014692 L336.475446,47.3537407 L337.865487,44.5275516 L338.279905,44.731756 L338.434107,41.4184466 L337.181957,40.8006355 L335.851224,43.5332618 L336.798677,44.000333 L335.408635,46.826522 L329.907778,44.1124598 L331.297819,41.2870133 L332.670809,41.9634868 L337.591186,31.9596983 L336.218937,31.2817397 L337.608978,28.4570357 L346.365869,32.7787436 Z" id="Fill-17" fill="#BD2639"></path>
                <polygon id="Fill-18" fill="#BD2639" points="358.310217 39.6560512 359.083451 42.8490656 357.585913 45.3381318 354.580458 43.5247966 355.332193 42.2750656 355.131285 41.4300306 353.228226 40.2820305 352.321548 40.5151948 351.213222 42.3597176 355.120906 48.9202484 352.290411 53.6295734 349.066998 54.4404506 344.032453 51.4033741 343.246616 48.2311513 344.774549 45.6886208 347.787418 47.4915601 347.033459 48.7695084 347.238074 49.6308798 349.137426 50.7625435 350.053742 50.5338345 351.119069 48.7628254 347.200264 42.1970966 350.081172 37.4053473 353.264552 36.6122916"></polygon>
                <g id="Group-129" transform="translate(0.000000, 0.321529)">
                    <path d="M69.4678982,153.52407 C69.3099895,153.52407 69.1498567,153.510704 68.9897239,153.483971 C67.4091541,153.221847 66.3401195,151.725586 66.6025593,150.142445 C73.5542495,108.141681 93.2572537,69.8878831 123.580175,39.5141477 C126.151196,36.9404295 128.838609,34.3897308 131.569021,31.9340799 C132.76038,30.8633062 134.595234,30.9605818 135.66501,32.1546207 C136.736269,33.3494021 136.637669,35.1864993 135.445569,36.2595006 C132.792258,38.6446082 130.181204,41.1232784 127.683577,43.6242256 C98.2213698,73.134362 79.0788304,110.296595 72.3258235,151.092923 C72.0915552,152.514929 70.8616465,153.52407 69.4678982,153.52407" id="Fill-19" fill="#2D2E64"></path>
                    <path d="M133.498176,336.806588 C132.807233,336.806588 132.114807,336.561543 131.561015,336.063284 C128.883239,333.6559 126.198049,331.105944 123.580323,328.482474 C93.4301378,298.28324 73.7649427,260.255924 66.7116869,218.512829 C66.4440575,216.929688 67.5079026,215.430456 69.0877311,215.162392 C70.6668183,214.898782 72.1650976,215.959903 72.4319856,217.543044 C79.2835928,258.089872 98.3890645,295.030821 127.683726,324.373139 C130.228058,326.922352 132.836887,329.40028 135.436821,331.737863 C136.628921,332.810122 136.728262,334.647219 135.657745,335.841258 C135.085419,336.481346 134.29291,336.806588 133.498176,336.806588" id="Fill-21" fill="#2D2E64"></path>
                    <path d="M402.154424,336.814534 C401.361174,336.814534 400.570148,336.490034 399.997821,335.853659 C398.925821,334.661105 399.020715,332.823266 400.212073,331.749522 C402.897263,329.326544 405.509058,326.844903 407.97703,324.373658 C437.284294,295.018717 456.392731,258.055491 463.236184,217.477476 C463.503072,215.893592 464.999868,214.825046 466.579697,215.096081 C468.159525,215.363403 469.224853,216.862635 468.957224,218.445033 C461.912123,260.220058 442.243962,298.269651 412.079691,328.482251 C409.542032,331.025524 406.855359,333.577708 404.095293,336.067517 C403.540759,336.568003 402.84685,336.814534 402.154424,336.814534" id="Fill-23" fill="#2D2E64"></path>
                    <path d="M466.201309,153.582435 C464.806819,153.582435 463.577652,152.573294 463.342642,151.149803 C456.598532,110.329713 437.453768,73.1481736 407.977475,43.6239285 C405.510244,41.1534264 402.896966,38.6710434 400.211035,36.2473226 C399.02116,35.1735787 398.925525,33.335739 399.998266,32.1431852 C401.070266,30.9521166 402.905121,30.854841 404.095738,31.9293275 C406.855804,34.4206214 409.541735,36.9728052 412.080136,39.5145932 C442.417884,69.9016948 462.123854,108.176285 469.066648,150.201552 C469.328346,151.784694 468.25857,153.280955 466.678742,153.542337 C466.517868,153.569069 466.358476,153.582435 466.201309,153.582435" id="Fill-25" fill="#2D2E64"></path>
                    <g id="Group-29" transform="translate(88.221300, 220.540764)">
                        <mask id="mask-2" fill="white">
                            <use xlink:href="#path-1"></use>
                        </mask>
                        <g id="Clip-28"></g>
                        <path d="M179.604852,147.027325 C137.211181,147.027325 95.8702351,132.190204 63.1972172,105.24933 C31.7207469,79.2938354 9.62909544,43.3471759 0.762484094,3.7649353 C0.409598893,2.1892198 1.43192808,0.632810907 3.01027386,0.304598726 L3.01027386,0.304598726 C4.5693444,-0.0191580866 6.08467497,0.979587126 6.43385339,2.53599602 C15.0246805,40.8447436 36.4142683,75.6359774 66.8854606,100.762031 C98.5220636,126.848216 138.553035,141.215296 179.604852,141.215296 C220.668531,141.215296 260.706174,126.843761 292.34426,100.750892 C322.816194,75.6174134 344.201333,40.8157837 352.785488,2.49441258 C353.133925,0.938746244 354.649256,-0.0607415304 356.208326,0.263015282 C357.786672,0.590484902 358.809743,2.1468938 358.456858,3.72260929 C349.59766,43.3174734 327.509715,79.2752713 296.032503,105.236706 C263.358744,132.186491 222.010385,147.027325 179.604852,147.027325" id="Fill-27" fill="#2D2E64" mask="url(#mask-2)"></path>
                    </g>
                    <g id="Group-32" transform="translate(85.997234, 0.000000)">
                        <mask id="mask-4" fill="white">
                            <use xlink:href="#path-3"></use>
                        </mask>
                        <g id="Clip-31"></g>
                        <path d="M360.144034,159.559906 C358.734718,159.560649 357.497395,158.529231 357.279437,157.090147 C350.977174,115.505961 329.936765,77.3457253 298.034015,49.637043 C265.807293,21.64693 224.538258,6.23283843 181.82877,6.23283843 C139.133368,6.23283843 97.8732293,21.6395044 65.6494728,49.6140236 C33.7474645,77.3085972 12.7011242,115.454724 6.38699972,157.024059 C6.14680055,158.610913 4.66186556,159.708419 3.08203707,159.460403 C1.4985018,159.218328 0.409450622,157.736918 0.650391148,156.150064 C7.17209516,113.215901 28.9056719,73.8207858 61.8492846,45.2217724 C95.12799,16.3316748 137.737395,0.4208096 181.82877,0.4208096 C225.934231,0.4208096 268.554015,16.339843 301.834944,45.2462769 C334.778557,73.8579139 356.506944,113.268623 363.016045,156.217637 C363.256245,157.804491 362.167193,159.285901 360.583658,159.526491 C360.435387,159.549511 360.288599,159.559906 360.144034,159.559906" id="Fill-30" fill="#2D2E64" mask="url(#mask-4)"></path>
                    </g>
                    <path d="M409.22918,165.014912 C407.822087,165.014912 406.586247,163.987207 406.365323,162.55035 C401.330778,129.791507 384.678452,99.7118261 359.47459,77.8508156 C334.012737,55.7662941 301.465008,43.6038794 267.826004,43.6038794 C234.207758,43.6038794 201.67189,55.7566408 176.212261,77.8255685 C151.011365,99.6695001 134.349401,129.730617 129.294839,162.470154 C129.050192,164.055522 127.568222,165.14486 125.984687,164.897587 C124.401152,164.651799 123.315807,163.167419 123.560455,161.581307 C128.82482,127.481398 146.174762,96.1757482 172.415038,73.4310896 C198.928875,50.4480687 232.813268,37.791108 267.826004,37.791108 C302.859498,37.791108 336.755752,50.4584646 363.273296,73.4578218 C389.515796,96.2195593 406.856101,127.546744 412.100449,161.665959 C412.343614,163.252071 411.257528,164.736451 409.674734,164.980011 C409.524239,165.003773 409.375968,165.014912 409.22918,165.014912" id="Fill-33" fill="#2D2E64"></path>
                    <path d="M267.822149,330.205439 C232.990304,330.205439 199.240838,317.664318 172.790757,294.892927 C147.387471,273.022264 130.222868,243.112629 124.234199,210.39834 C123.939139,208.786981 125.005208,207.242453 126.61988,206.980329 L126.620622,206.980329 C128.169313,206.728601 129.6498,207.753336 129.932257,209.298606 C135.674055,240.729007 152.162542,269.469107 176.573153,290.485082 C201.97125,312.351291 234.37738,324.39341 267.822149,324.39341 C301.283228,324.39341 333.700478,312.34238 359.103764,290.459835 C383.519565,269.426781 400.003604,240.666631 405.729833,209.216924 C406.011549,207.671654 407.492035,206.646177 409.040727,206.89642 C410.655399,207.157801 411.72221,208.701587 411.428633,210.313688 C405.454791,243.048026 388.296118,272.978452 362.886901,294.866195 C336.432373,317.654665 302.671045,330.205439 267.822149,330.205439" id="Fill-35" fill="#2D2E64"></path>
                    <path d="M402.153683,336.815276 C400.971221,336.815276 399.860671,336.086823 399.429943,334.909863 C396.990884,328.254285 393.994325,321.698952 390.523298,315.423565 C384.53537,304.610384 377.121816,294.592487 368.485766,285.646849 C341.803641,258.062174 306.05474,242.869366 267.826004,242.869366 C229.603199,242.869366 193.856521,258.062174 167.172914,285.649819 C158.536864,294.586546 151.119603,304.604444 145.129451,315.424307 C141.684372,321.651428 138.687072,328.206018 136.221323,334.906151 C135.667531,336.41058 133.997257,337.181359 132.495271,336.627408 C130.991802,336.071972 130.222275,334.401951 130.776067,332.895294 C133.344123,325.918929 136.465971,319.092561 140.054131,312.607029 C146.291896,301.340143 154.013854,290.910124 163.005014,281.605829 C190.791758,252.878352 228.01744,237.057337 267.826004,237.057337 C307.639758,237.057337 344.869146,252.878352 372.655149,281.605086 C381.646308,290.918293 389.36456,301.346826 395.597877,312.605544 C399.213467,319.142313 402.335315,325.972393 404.877423,332.907175 C405.428991,334.413832 404.65724,336.083853 403.153772,336.637061 C402.823127,336.757356 402.48581,336.815276 402.153683,336.815276" id="Fill-37" fill="#2D2E64"></path>
                    <path d="M267.826152,130.93973 C228.006467,130.93973 190.780044,115.115745 163.00442,86.38307 C154.031054,77.1047641 146.312061,66.6777155 140.063176,55.3907808 C136.449809,48.8614375 133.327961,42.0343271 130.783629,35.0988028 C130.230578,33.5921455 131.002329,31.9228672 132.506539,31.3689164 C134.009267,30.8119952 135.677317,31.5872295 136.230368,33.0946293 C138.672393,39.750208 141.668952,46.3040558 145.137754,52.5735025 C151.139768,63.4126726 158.553322,73.4275995 167.172321,82.3390801 C193.845549,109.931923 229.591485,125.127701 267.826152,125.127701 C306.057853,125.127701 341.806755,109.931923 368.488138,82.3398226 C377.111585,73.4246293 384.52514,63.4067321 390.522705,52.5653343 C393.991508,46.295145 396.988808,39.7412972 399.430091,33.0864611 C399.983142,31.5798038 401.651192,30.8082824 403.15392,31.3607482 C404.65813,31.9146991 405.429881,33.5839773 404.87683,35.0906346 C402.332498,42.0254164 399.21065,48.8525268 395.598025,55.3826126 C389.352105,66.6710325 381.633112,77.1017938 372.655297,86.3838125 C344.871519,115.115745 307.642871,130.93973 267.826152,130.93973" id="Fill-39" fill="#2D2E64"></path>
                    <path d="M162.530843,196.438852 C162.530843,196.438852 157.961128,186.983074 154.383346,179.557459 L154.383346,195.532184 C154.383346,196.698748 153.435152,197.604673 152.314223,197.604673 C151.150295,197.604673 150.2451,196.698748 150.2451,195.532184 L150.2451,170.49004 C150.2451,169.541047 150.891562,168.676705 151.840497,168.46062 C152.787949,168.245277 153.736884,168.720516 154.167612,169.583373 C154.167612,169.583373 158.737327,179.038408 162.315108,186.465508 L162.315108,170.49004 C162.315108,169.367287 163.220303,168.418294 164.384231,168.418294 C165.505161,168.418294 166.453354,169.367287 166.453354,170.49004 L166.453354,195.532184 C166.453354,196.482663 165.763152,197.34552 164.857957,197.561605 C163.909764,197.77769 162.918572,197.302451 162.530843,196.438852" id="Fill-41" fill="#2D2E64"></path>
                    <path d="M172.831977,175.671486 L172.831977,190.351184 C172.831977,192.078382 174.210898,193.460289 175.936032,193.460289 C177.659684,193.460289 179.039346,192.078382 179.039346,190.351184 L179.039346,175.671486 C179.039346,173.944288 177.659684,172.562381 175.936032,172.562381 C174.210898,172.562381 172.831977,173.944288 172.831977,175.671486 M168.693731,190.351184 L168.693731,175.671486 C168.693731,171.656456 171.926782,168.418145 175.936032,168.418145 C179.944541,168.418145 183.177592,171.656456 183.177592,175.671486 L183.177592,190.351184 C183.177592,194.366214 179.944541,197.605268 175.936032,197.605268 C171.926782,197.605268 168.693731,194.366214 168.693731,190.351184" id="Fill-43" fill="#2D2E64"></path>
                    <path d="M184.900354,190.351184 L184.900354,175.671486 C184.900354,172.390107 187.099214,169.497087 190.245527,168.676557 C193.43558,167.8137 196.754628,169.195607 198.392282,172.044816 C198.996487,173.038363 198.651015,174.290322 197.659823,174.894024 C196.667889,175.455401 195.417964,175.110852 194.814501,174.117305 C194.12504,172.908415 192.702379,172.30397 191.322716,172.692329 C189.986794,173.038363 189.0386,174.290322 189.0386,175.671486 L189.0386,190.351184 C189.0386,191.775417 189.986794,192.98505 191.322716,193.374152 C192.702379,193.719443 194.12504,193.114256 194.814501,191.905365 C195.417964,190.912561 196.667889,190.56727 197.659823,191.127904 C198.651015,191.733091 198.996487,192.98505 198.392282,193.977855 C196.754628,196.827806 193.43558,198.209713 190.245527,197.345371 C187.099214,196.525583 184.900354,193.632564 184.900354,190.351184" id="Fill-45" fill="#2D2E64"></path>
                    <path d="M212.702667,168.418071 C213.866595,168.418071 214.77179,169.367065 214.77179,170.49056 L214.77179,195.532704 C214.77179,196.698526 213.866595,197.605193 212.702667,197.605193 C211.581737,197.605193 210.633544,196.698526 210.633544,195.532704 L210.633544,184.651951 L204.426174,184.651951 L204.426174,195.532704 C204.426174,196.698526 203.520979,197.605193 202.357051,197.605193 C201.236863,197.605193 200.287928,196.698526 200.287928,195.532704 L200.287928,170.49056 C200.287928,169.367065 201.236863,168.418071 202.357051,168.418071 C203.520979,168.418071 204.426174,169.367065 204.426174,170.49056 L204.426174,180.506972 L210.633544,180.506972 L210.633544,170.49056 C210.633544,169.367065 211.581737,168.418071 212.702667,168.418071" id="Fill-47" fill="#2D2E64"></path>
                    <path d="M219.598236,168.590642 L228.219459,168.590642 C229.383387,168.590642 230.288582,169.541121 230.288582,170.663132 C230.288582,171.828953 229.383387,172.735621 228.219459,172.735621 L221.667359,172.735621 L221.667359,180.507269 L227.357263,180.507269 C228.521191,180.507269 229.426386,181.457005 229.426386,182.579758 C229.426386,183.74558 228.521191,184.652248 227.357263,184.652248 L221.667359,184.652248 L221.667359,193.287495 L228.219459,193.287495 C229.383387,193.287495 230.288582,194.236489 230.288582,195.359984 C230.288582,196.525806 229.383387,197.431731 228.219459,197.431731 L219.598236,197.431731 C218.477307,197.431731 217.529113,196.525806 217.529113,195.359984 L217.529113,170.663132 C217.529113,169.541121 218.477307,168.590642 219.598236,168.590642" id="Fill-49" fill="#2D2E64"></path>
                    <path d="M240.676529,190.394327 C240.763267,189.444591 240.417796,188.494112 239.771334,187.80353 L232.874504,180.723206 C231.408844,179.255162 230.675644,177.182673 230.84838,175.110184 C231.021115,173.037695 232.055306,171.138222 233.693702,169.886264 C235.331356,168.633562 237.487218,168.159066 239.512601,168.547425 C241.538725,168.978854 243.306117,170.231555 244.340308,172.04489 C244.901514,173.037695 244.556042,174.290396 243.56485,174.894098 C242.572916,175.455475 241.322991,175.110184 240.763267,174.117379 C240.2888,173.34066 239.556341,172.821609 238.694144,172.605524 C237.788208,172.43325 236.926012,172.650078 236.193552,173.210712 C235.461093,173.729019 235.029624,174.548807 234.986626,175.455475 C234.900628,176.319074 235.20236,177.182673 235.848822,177.830929 L242.702653,184.91051 C244.211312,186.465434 244.98677,188.581734 244.814775,190.69655 C244.642039,192.855176 243.56485,194.798459 241.883456,196.093487 C240.159063,197.389256 238.004684,197.864496 235.891821,197.475394 C233.779699,197.043965 231.969309,195.705127 230.935118,193.891049 C230.330913,192.898987 230.675644,191.603217 231.667577,191.042583 C232.659511,190.481207 233.909436,190.826498 234.5129,191.81856 C234.986626,192.63909 235.762825,193.200467 236.710277,193.417295 C237.659212,193.589569 238.607406,193.374226 239.383605,192.769039 C240.159063,192.207662 240.590532,191.344806 240.676529,190.394327" id="Fill-51" fill="#2D2E64"></path>
                    <path d="M260.201534,172.735621 L257.097478,172.735621 L257.097478,193.287495 L260.201534,193.287495 C261.925926,193.287495 263.305589,191.905588 263.305589,190.17839 L263.305589,175.843983 C263.305589,174.116785 261.925926,172.735621 260.201534,172.735621 L260.201534,172.735621 Z M260.201534,168.590642 C264.210043,168.590642 267.443094,171.828953 267.443094,175.843983 L267.443094,190.17839 C267.443094,194.19342 264.210043,197.431731 260.201534,197.431731 L255.028355,197.431731 C253.865168,197.431731 252.959973,196.525806 252.959973,195.359984 L252.959973,170.663132 C252.959973,169.541121 253.865168,168.590642 255.028355,168.590642 L260.201534,168.590642 Z" id="Fill-53" fill="#2D2E64"></path>
                    <path d="M271.753334,168.590642 L280.374557,168.590642 C281.537744,168.590642 282.44368,169.541121 282.44368,170.663132 C282.44368,171.828953 281.537744,172.735621 280.374557,172.735621 L273.822458,172.735621 L273.822458,180.507269 L279.512361,180.507269 C280.676289,180.507269 281.581484,181.457005 281.581484,182.579758 C281.581484,183.74558 280.676289,184.652248 279.512361,184.652248 L273.822458,184.652248 L273.822458,193.287495 L280.374557,193.287495 C281.537744,193.287495 282.44368,194.236489 282.44368,195.359984 C282.44368,196.525806 281.537744,197.431731 280.374557,197.431731 L271.753334,197.431731 C270.632405,197.431731 269.684211,196.525806 269.684211,195.359984 L269.684211,170.663132 C269.684211,169.541121 270.632405,168.590642 271.753334,168.590642" id="Fill-55" fill="#2D2E64"></path>
                    <path d="M297.61463,172.735621 L294.510575,172.735621 L294.510575,181.370868 L297.61463,181.370868 C299.339023,181.370868 300.718685,179.988961 300.718685,178.261763 L300.718685,175.843983 C300.718685,174.116785 299.339023,172.735621 297.61463,172.735621 M292.442193,168.590642 L297.61463,168.590642 C301.623139,168.590642 304.856932,171.828953 304.856932,175.843983 L304.856932,178.261763 C304.856932,182.277536 301.623139,185.515104 297.61463,185.515104 L294.510575,185.515104 L294.510575,195.532259 C294.510575,196.698823 293.563123,197.604748 292.442193,197.604748 C291.278265,197.604748 290.37307,196.698823 290.37307,195.532259 L290.37307,170.663132 C290.37307,169.541121 291.278265,168.590642 292.442193,168.590642" id="Fill-57" fill="#2D2E64"></path>
                    <path d="M305.890455,195.532407 L305.890455,170.490263 C305.890455,169.36751 306.838649,168.417774 307.959578,168.417774 C309.123507,168.417774 310.028702,169.36751 310.028702,170.490263 L310.028702,195.532407 C310.028702,196.698229 309.123507,197.604896 307.959578,197.604896 C306.838649,197.604896 305.890455,196.698229 305.890455,195.532407" id="Fill-59" fill="#2D2E64"></path>
                    <path d="M324.339679,168.590642 C325.502866,168.590642 326.408061,169.541121 326.408061,170.663132 C326.408061,171.828953 325.502866,172.735621 324.339679,172.735621 L320.804155,172.735621 L320.804155,195.532259 C320.804155,196.698823 319.899701,197.604748 318.735032,197.604748 C317.614844,197.604748 316.665909,196.698823 316.665909,195.532259 L316.665909,172.735621 L313.131867,172.735621 C312.010938,172.735621 311.062744,171.828953 311.062744,170.663132 C311.062744,169.541121 312.010938,168.590642 313.131867,168.590642 L324.339679,168.590642 Z" id="Fill-61" fill="#2D2E64"></path>
                    <path d="M326.924267,190.351184 L326.924267,175.671486 C326.924267,172.390107 329.123127,169.497087 332.26944,168.676557 C335.459492,167.8137 338.778541,169.195607 340.416195,172.044816 C341.020399,173.038363 340.675669,174.290322 339.683736,174.894024 C338.691802,175.455401 337.442618,175.110852 336.838413,174.117305 C336.148953,172.908415 334.726292,172.30397 333.346629,172.692329 C332.010707,173.038363 331.062513,174.290322 331.062513,175.671486 L331.062513,190.351184 C331.062513,191.775417 332.010707,192.98505 333.346629,193.374152 C334.726292,193.719443 336.148953,193.114256 336.838413,191.905365 C337.442618,190.912561 338.691802,190.56727 339.683736,191.127904 C340.675669,191.733091 341.020399,192.98505 340.416195,193.977855 C338.778541,196.827806 335.459492,198.209713 332.26944,197.345371 C329.123127,196.525583 326.924267,193.632564 326.924267,190.351184" id="Fill-63" fill="#2D2E64"></path>
                    <path d="M354.727246,168.418071 C355.890433,168.418071 356.79637,169.367065 356.79637,170.49056 L356.79637,195.532704 C356.79637,196.698526 355.890433,197.605193 354.727246,197.605193 C353.606317,197.605193 352.658123,196.698526 352.658123,195.532704 L352.658123,184.651951 L346.450754,184.651951 L346.450754,195.532704 C346.450754,196.698526 345.544818,197.605193 344.381631,197.605193 C343.260702,197.605193 342.312508,196.698526 342.312508,195.532704 L342.312508,170.49056 C342.312508,169.367065 343.260702,168.418071 344.381631,168.418071 C345.544818,168.418071 346.450754,169.367065 346.450754,170.49056 L346.450754,180.506972 L352.658123,180.506972 L352.658123,170.49056 C352.658123,169.367065 353.606317,168.418071 354.727246,168.418071" id="Fill-65" fill="#2D2E64"></path>
                    <path d="M361.622445,168.590642 L370.243668,168.590642 C371.407596,168.590642 372.312791,169.541121 372.312791,170.663132 C372.312791,171.828953 371.407596,172.735621 370.243668,172.735621 L363.691568,172.735621 L363.691568,180.507269 L369.382213,180.507269 C370.546141,180.507269 371.451336,181.457005 371.451336,182.579758 C371.451336,183.74558 370.546141,184.652248 369.382213,184.652248 L363.691568,184.652248 L363.691568,193.287495 L370.243668,193.287495 C371.407596,193.287495 372.312791,194.236489 372.312791,195.359984 C372.312791,196.525806 371.407596,197.431731 370.243668,197.431731 L361.622445,197.431731 C360.501516,197.431731 359.554064,196.525806 359.554064,195.359984 L359.554064,170.663132 C359.554064,169.541121 360.501516,168.590642 361.622445,168.590642" id="Fill-67" fill="#2D2E64"></path>
                    <path d="M377.312567,175.671486 L377.312567,190.351184 C377.312567,192.078382 378.691488,193.460289 380.41588,193.460289 C382.140273,193.460289 383.519936,192.078382 383.519936,190.351184 L383.519936,175.671486 C383.519936,173.944288 382.140273,172.562381 380.41588,172.562381 C378.691488,172.562381 377.312567,173.944288 377.312567,175.671486 M373.17432,190.351184 L373.17432,175.671486 C373.17432,171.656456 376.407372,168.418145 380.41588,168.418145 C384.425131,168.418145 387.658182,171.656456 387.658182,175.671486 L387.658182,190.351184 C387.658182,194.366214 384.425131,197.605268 380.41588,197.605268 C376.407372,197.605268 373.17432,194.366214 373.17432,190.351184" id="Fill-69" fill="#2D2E64"></path>
                    <path d="M487.921467,155.747373 C486.048062,155.747373 484.523835,157.278535 484.523835,159.159443 L484.523835,208.836065 C484.523835,210.716973 486.048062,212.247392 487.921467,212.247392 C489.794131,212.247392 491.318358,210.716973 491.318358,208.836065 L491.318358,159.159443 C491.318358,157.278535 489.794131,155.747373 487.921467,155.747373 M487.921467,218.059421 C482.848372,218.059421 478.721246,213.921868 478.721246,208.836065 L478.721246,159.159443 C478.721246,154.072897 482.848372,149.935344 487.921467,149.935344 C492.993821,149.935344 497.120947,154.072897 497.120947,159.159443 L497.120947,208.836065 C497.120947,213.921868 492.993821,218.059421 487.921467,218.059421" id="Fill-71" fill="#2D2E64"></path>
                    <path d="M415.661698,176.21712 C414.636404,176.21712 413.802379,177.048789 413.802379,178.072781 L413.802379,190.999292 C413.802379,192.021799 414.636404,192.853468 415.661698,192.853468 C416.687734,192.853468 417.521759,192.021799 417.521759,190.999292 L417.521759,178.072781 C417.521759,177.048789 416.687734,176.21712 415.661698,176.21712 M415.661698,198.665497 C411.437455,198.665497 407.99979,195.226695 407.99979,190.999292 L407.99979,178.072781 C407.99979,173.844636 411.437455,170.405091 415.661698,170.405091 C419.886683,170.405091 423.324349,173.844636 423.324349,178.072781 L423.324349,190.999292 C423.324349,195.226695 419.886683,198.665497 415.661698,198.665497" id="Fill-73" fill="#2D2E64"></path>
                    <polygon id="Fill-75" fill="#2D2E64" points="481.171796 212.415211 417.521982 193.858599 417.521982 175.150505 480.556471 156.366669 482.211177 161.936623 423.324571 179.485579 423.324571 189.496793 482.793141 206.834861"></polygon>
                    <path d="M447.334406,211.546117 C446.793216,211.546117 446.247578,211.465178 445.713061,211.299587 L432.688187,207.277874 C429.78578,206.382344 428.138489,203.278437 429.017736,200.357943 L430.621288,195.029322 L436.177006,196.706768 L434.644624,201.799997 L447.086793,205.641268 L448.812668,199.483206 L454.398782,201.055208 L452.580237,207.543711 C452.177681,208.98131 451.238383,210.166438 449.934339,210.877812 C449.122555,211.321121 448.23367,211.546117 447.334406,211.546117" id="Fill-77" fill="#2D2E64"></path>
                    <path d="M529.34248,208.093577 C529.094126,208.093577 528.841323,208.060905 528.589263,207.994074 L510.119874,203.035248 C508.572665,202.619414 507.654867,201.02662 508.069285,199.476151 C508.483702,197.925683 510.073168,197.006392 511.623343,197.421484 L530.092731,202.379567 C531.63994,202.795401 532.557738,204.388938 532.143321,205.939406 C531.796366,207.237404 530.624283,208.093577 529.34248,208.093577" id="Fill-79" fill="#2D2E64"></path>
                    <path d="M532.976159,186.903768 L510.871905,186.903768 C509.269094,186.903768 507.970981,185.602801 507.970981,183.997383 C507.970981,182.39345 509.269094,181.091739 510.871905,181.091739 L532.976159,181.091739 C534.578228,181.091739 535.877083,182.39345 535.877083,183.997383 C535.877083,185.602801 534.578228,186.903768 532.976159,186.903768" id="Fill-81" fill="#2D2E64"></path>
                    <path d="M510.870126,170.734566 C509.583874,170.734566 508.40586,169.87765 508.052233,168.575197 C507.62892,167.015075 508.547459,165.40743 510.105788,164.983427 L528.575177,159.955543 C530.134247,159.532283 531.737058,160.453059 532.160372,162.011696 C532.583686,163.571818 531.665146,165.179463 530.106817,165.603466 L511.637428,170.63135 C511.38092,170.701151 511.123669,170.734566 510.870126,170.734566" id="Fill-83" fill="#2D2E64"></path>
                    <path d="M47.9566539,155.747373 C46.0832487,155.747373 44.5590219,157.278535 44.5590219,159.159443 L44.5590219,208.836065 C44.5590219,210.716973 46.0832487,212.247392 47.9566539,212.247392 C49.8300592,212.247392 51.3535447,210.716973 51.3535447,208.836065 L51.3535447,159.159443 C51.3535447,157.278535 49.8300592,155.747373 47.9566539,155.747373 M47.9566539,218.059421 C42.8842999,218.059421 38.7564326,213.921868 38.7564326,208.836065 L38.7564326,159.159443 C38.7564326,154.072897 42.8842999,149.935344 47.9566539,149.935344 C53.0297494,149.935344 57.1561339,154.072897 57.1561339,159.159443 L57.1561339,208.836065 C57.1561339,213.921868 53.0297494,218.059421 47.9566539,218.059421" id="Fill-85" fill="#2D2E64"></path>
                    <path d="M120.215311,176.21712 C119.190016,176.21712 118.35525,177.048789 118.35525,178.072781 L118.35525,190.999292 C118.35525,192.021799 119.190016,192.853468 120.215311,192.853468 C121.240605,192.853468 122.075372,192.021799 122.075372,190.999292 L122.075372,178.072781 C122.075372,177.048789 121.240605,176.21712 120.215311,176.21712 M120.215311,198.665497 C115.990326,198.665497 112.553402,195.226695 112.553402,190.999292 L112.553402,178.072781 C112.553402,173.844636 115.990326,170.405091 120.215311,170.405091 C124.440295,170.405091 127.877219,173.844636 127.877219,178.072781 L127.877219,190.999292 C127.877219,195.226695 124.440295,198.665497 120.215311,198.665497" id="Fill-87" fill="#2D2E64"></path>
                    <polygon id="Fill-89" fill="#2D2E64" points="54.7059541 212.415211 53.0846097 206.834861 112.55318 189.496793 112.55318 179.485579 53.6665737 161.936623 55.3212791 156.366669 118.355027 175.150505 118.355027 193.858599"></polygon>
                    <path d="M88.543345,211.546117 C87.6440808,211.546117 86.7551956,211.321121 85.9434113,210.877812 C84.6401084,210.166438 83.7000697,208.98131 83.2975137,207.542968 L81.4782274,201.055208 L87.0643408,199.483206 L88.7909577,205.641268 L101.233126,201.799997 L99.7007447,196.706768 L105.255721,195.029322 L106.860014,200.358686 C107.739262,203.278437 106.09197,206.382344 103.188822,207.277874 L90.1654307,211.299587 C89.6309134,211.464435 89.0845344,211.546117 88.543345,211.546117" id="Fill-91" fill="#2D2E64"></path>
                    <path d="M6.53527082,208.093577 C5.25420858,208.093577 4.08212559,207.237404 3.73442988,205.939406 C3.32001217,204.388938 4.23781024,202.795401 5.78576044,202.379567 L24.2551491,197.421484 C25.8038407,197.005649 27.3933068,197.925683 27.8084658,199.476151 C28.2228835,201.02662 27.3050855,202.619414 25.7571353,203.035248 L7.28774661,207.994074 C7.03642711,208.060905 6.7836249,208.093577 6.53527082,208.093577" id="Fill-93" fill="#2D2E64"></path>
                    <path d="M25.0061422,186.903768 L2.90114633,186.903768 C1.29833582,186.903768 0.000222406639,185.602801 0.000222406639,183.997383 C0.000222406639,182.39345 1.29833582,181.091739 2.90114633,181.091739 L25.0061422,181.091739 C26.6089527,181.091739 27.9078075,182.39345 27.9078075,183.997383 C27.9078075,185.602801 26.6089527,186.903768 25.0061422,186.903768" id="Fill-95" fill="#2D2E64"></path>
                    <path d="M25.0079956,170.734566 C24.754452,170.734566 24.4964603,170.701151 24.2399513,170.63135 L5.77056266,165.603466 C4.21297483,165.179463 3.29369405,163.571818 3.71700802,162.011696 C4.14032199,160.452317 5.74609793,159.533026 7.3029444,159.955543 L25.7723331,164.983427 C27.3299209,165.40743 28.2492017,167.015075 27.8258877,168.575197 C27.4722611,169.87765 26.2935059,170.734566 25.0079956,170.734566" id="Fill-97" fill="#2D2E64"></path>
                    <polygon id="Fill-99" fill="#BD2639" points="108.120467 124.253781 112.553031 125.741131 111.558132 128.717318 110.11842 128.23391 109.755156 129.317307 120.282403 132.838534 120.759836 131.409103 123.742309 132.409333 121.650204 138.660216 118.669214 137.658501 119.159991 136.194912 108.640157 132.649923 108.250946 133.81426 109.689175 134.29841 108.690569 137.284992 104.258746 135.796156"></polygon>
                    <polygon id="Fill-101" fill="#BD2639" points="113.865675 110.644782 118.164796 112.515294 116.905974 115.416482 115.503329 114.805354 114.051755 118.151336 117.481266 119.644627 119.518511 114.947926 122.370505 116.188746 120.332519 120.884705 124.242428 122.585913 125.69326 119.238446 124.300995 118.634001 125.559816 115.732813 129.835955 117.594415 129.831507 117.606296 129.842627 117.610751 125.139468 128.452892 122.277094 127.207616 122.872403 125.835362 112.637991 121.380736 112.027855 122.787147 109.143982 121.531476"></polygon>
                    <polygon id="Fill-103" fill="#BD2639" points="119.139456 100.607801 122.284285 99.6461836 124.63883 100.908538 122.955212 104.006505 121.917315 103.450326 121.068463 103.699084 120.019445 105.660932 120.303384 106.571312 128.931279 111.198955 129.780872 110.950197 130.830631 108.98835 130.560778 108.099504 129.362006 107.455703 131.018936 104.331004 133.555854 105.690634 134.48922 108.839838 131.703948 114.051134 128.565049 115.003098 117.303118 108.963103 116.353442 105.819097"></polygon>
                    <polygon id="Fill-105" fill="#BD2639" points="129.035587 84.7011682 131.676295 86.4335641 130.827443 87.7352745 140.147023 93.815368 140.984755 92.5329643 143.625463 94.2638751 140.2219 99.4759143 137.579709 97.7442609 138.197999 96.797495 135.187355 94.8089153 133.325811 97.6588663 136.350542 99.6266543 136.948815 98.7103334 139.591006 100.442729 136.226735 105.590908 133.585286 103.859997 134.423017 102.578336 125.1153 96.477451 124.277568 97.7598547 121.636118 96.0282012 125.000389 90.8792798 127.641098 92.6101907 127.042824 93.5265116 130.399681 95.7415725 132.261966 92.8916215 128.891764 90.6980948 128.273474 91.6433756 125.632024 89.9124648"></polygon>
                    <polygon id="Fill-107" fill="#BD2639" points="186.709261 315.160995 184.084863 319.051275 181.469361 317.280265 182.325627 316.010485 179.307568 313.967699 177.213981 317.073091 181.449344 319.938636 179.709383 322.518294 175.473278 319.652749 173.087596 323.18957 176.105654 325.231614 176.955248 323.972972 179.572232 325.742496 176.96192 329.612727 176.951541 329.606786 176.944869 329.61644 167.164907 322.997989 168.912282 320.408677 170.149604 321.245544 176.396266 311.984317 175.128548 311.125916 176.889267 308.515812"></polygon>
                    <polygon id="Fill-109" fill="#BD2639" points="203.281521 324.032897 204.332763 327.14423 203.061339 329.757303 199.907613 328.215003 200.54592 326.905125 200.271618 326.079396 198.274407 325.104413 197.392194 325.417774 196.450672 327.352147 200.920304 333.542139 198.514606 338.483144 195.375707 339.574709 190.093549 336.994308 189.031187 333.903767 190.330041 331.236486 193.489698 332.766905 192.851391 334.106486 193.130882 334.946323 195.122905 335.90497 196.015497 335.596807 196.91995 333.739661 192.439198 327.543728 194.887895 322.516586 197.988243 321.446555"></polygon>
                    <polygon id="Fill-111" fill="#BD2639" points="226.090879 332.567305 224.651908 337.021931 221.670918 336.055859 222.137972 334.609349 221.052627 334.257375 217.64684 344.838133 219.079139 345.302234 218.110929 348.299213 211.850182 346.270535 212.817651 343.272071 214.285535 343.748796 217.713562 333.175463 216.546669 332.798241 216.079615 334.244009 213.086763 333.274223 214.526475 328.818112"></polygon>
                    <polygon id="Fill-113" fill="#BD2639" points="233.599253 348.598688 237.162207 349.298923 236.486833 352.748864 232.923878 352.048628"></polygon>
                    <polygon id="Fill-115" fill="#BD2639" points="266.457091 338.377626 266.263597 341.510493 264.773473 341.418415 264.085495 352.562778 265.576361 352.654855 265.382867 355.785495 259.286701 355.408274 259.480195 352.276892 260.982922 352.369712 261.420322 345.084441 258.724754 351.109585 256.39838 350.964786 254.463442 344.65524 254.014181 351.938284 255.52877 352.031846 255.336018 355.163228 249.143476 354.780809 249.336228 351.649427 250.86342 351.74299 251.550657 340.59937 250.036067 340.505064 250.229561 337.373682 255.852742 337.722686 257.936693 344.760684 260.906563 338.03382"></polygon>
                    <polygon id="Fill-117" fill="#BD2639" points="292.657557 336.397957 292.990425 339.5182 291.50549 339.677108 292.690918 350.778403 294.176594 350.619494 294.509463 353.739738 288.436279 354.389479 288.102669 351.269236 289.600207 351.109585 288.812887 343.855502 287.163372 350.244501 284.845153 350.492516 281.883438 344.596578 282.658154 351.852889 284.167554 351.691753 284.500423 354.811254 278.330863 355.472876 277.997994 352.352633 279.518514 352.189269 278.333828 341.087232 276.824428 341.249853 276.490818 338.12961 282.093241 337.52962 285.324069 344.118369 287.127786 336.989778"></polygon>
                    <polygon id="Fill-119" fill="#BD2639" points="313.397421 331.416112 314.211429 334.459871 312.826577 334.831152 311.79461 340.888226 315.681537 345.599036 317.089371 345.221072 317.902638 348.262604 312.707219 349.657877 311.893211 346.615603 312.386212 346.482684 310.943534 344.615885 310.603252 346.961636 311.07253 346.834658 311.886538 349.878418 306.631811 351.2878 305.817802 348.245525 307.236757 347.863849 308.322101 341.818656 304.418123 337.087054 302.939861 337.484324 302.125852 334.44205 307.38058 333.031183 308.193847 336.073457 307.72531 336.199693 309.173177 338.090997 309.51939 335.718513 309.015269 335.854402 308.20126 332.810642"></polygon>
                    <polygon id="Fill-121" fill="#BD2639" points="328.955729 325.555371 330.144863 328.47141 328.739994 329.04541 332.949411 339.37147 334.354279 338.795985 335.543414 341.712024 329.484315 344.191437 328.295181 341.273912 329.700791 340.699912 325.490633 330.375337 324.086506 330.949337 322.896631 328.033298"></polygon>
                    <polygon id="Fill-123" fill="#BD2639" points="344.210749 317.898077 345.7157 320.664861 344.382743 321.391086 349.713089 331.183987 351.046046 330.456277 352.550998 333.222318 346.804751 336.360383 345.2998 333.594341 346.632757 332.865889 341.302411 323.074473 339.969454 323.802926 338.464502 321.036141"></polygon>
                    <polygon id="Fill-125" fill="#BD2639" points="358.5347 308.588509 360.336194 311.170395 359.092199 312.040677 365.471563 321.181609 366.715557 320.309842 368.517793 322.893213 363.153344 326.648347 361.351851 324.067203 362.595845 323.196179 356.216481 314.055247 354.972487 314.925529 353.170993 312.344385"></polygon>
                    <path d="M256.92882,270.970937 L256.92882,267.063579 L273.111868,267.063579 C276.209993,267.063579 278.732084,269.582347 278.732084,272.678086 L278.732084,288.859986 L281.286795,290.956238 L281.286795,272.678086 C281.286795,268.175193 277.61931,264.511395 273.111868,264.511395 L254.374109,264.511395 L254.374109,268.874686 L256.92882,270.970937 Z M278.514867,296.113327 C277.845423,298.46799 275.679182,300.199643 273.111868,300.199643 L256.92882,300.199643 L256.92882,278.402493 L254.374109,276.306242 L254.374109,302.751827 L273.111868,302.751827 C276.463536,302.751827 279.351116,300.724634 280.610679,297.8331 L278.514867,296.113327 Z M258.846707,274.609489 L248.30389,265.958647 L248.30389,295.412349 L250.858601,295.412349 L250.858601,271.357812 L258.846707,277.912402 L258.846707,274.609489 Z M284.801561,271.850873 L284.801561,295.904667 L275.009738,287.870152 C274.415913,288.519893 273.700505,289.056023 272.899099,289.442155 L287.356272,301.303832 L287.356272,271.850873 L284.801561,271.850873 Z M272.661866,283.229143 C272.661866,284.74174 271.430474,285.972907 269.915885,285.972907 L262.999038,285.972907 L262.999038,273.126593 L269.915885,273.126593 C271.429733,273.126593 272.661866,274.35776 272.661866,275.870358 L272.661866,283.229143 Z M269.915885,270.57441 L260.443586,270.57441 L260.443586,287.248628 L260.443586,288.525091 L260.443586,295.412349 L262.999038,295.412349 L262.999038,288.525091 L269.915885,288.525091 C272.83905,288.525091 275.216576,286.148894 275.216576,283.229143 L275.216576,275.870358 C275.216576,272.950606 272.838308,270.57441 269.915885,270.57441 L269.915885,270.57441 Z" id="Fill-127" fill="#2D2E64"></path>
                </g>
                <g id="Group-132" transform="translate(247.612725, 264.673422)">
                    <mask id="mask-6" fill="white">
                        <use xlink:href="#path-5"></use>
                    </mask>
                    <g id="Clip-131"></g>
                    <polygon id="Fill-130" fill="#2D2E64" mask="url(#mask-6)" points="-1.261787 40.3559897 41.6967967 40.3559897 41.6967967 -1.79699882 -1.261787 -1.79699882"></polygon>
                </g>
                <g id="Group-137" transform="translate(183.856155, 97.597085)" fill="#2D2E64">
                    <path d="M83.7958528,23.2556152 C83.8188349,23.2556152 83.8410755,23.2563578 83.8640575,23.2563578 C85.2763397,23.2771495 86.4091308,24.4296049 86.4091308,25.8441846 L86.4091308,37.2736911 C86.4091308,38.7164881 85.2318584,39.8815671 83.7914047,39.861518 C83.6372028,39.8592903 83.4800354,39.8570626 83.3221267,39.8548349 C81.8750008,39.8333006 80.7266412,38.6258956 80.7777947,37.1771581 L81.1751613,25.7528495 C81.2240907,24.3449529 82.3895015,23.235566 83.7958528,23.2556152 M160.480179,3.74406932 L166.852871,13.6164244 C167.587554,14.7555138 167.248013,16.2777648 166.099654,16.9950792 C165.968434,17.076761 165.837214,17.1591853 165.705994,17.2401245 C164.55541,17.9544687 163.042304,17.5869007 162.347654,16.4225643 L156.327106,6.33041101 C155.649507,5.19503449 156.006099,3.72699041 157.12777,3.0289826 C157.141856,3.02081442 157.1552,3.01190369 157.169286,3.00373551 C158.290215,2.30498514 159.763289,2.63319732 160.480179,3.74406932 M11.1993604,0.551797448 L11.2393936,0.578529662 C12.3403065,1.31589323 12.6487104,2.79878854 11.9318196,3.9141159 L5.58581687,13.7879561 C4.85113361,14.9315008 3.3232,15.2500597 2.19337427,14.4956172 C2.06511978,14.4094801 1.93760664,14.3240855 1.80935214,14.2379484 C0.68249184,13.4797931 0.391880498,11.9434334 1.16659696,10.8266209 L7.85658866,1.18297472 C8.61202988,0.0936370047 10.0991889,-0.185566118 11.1993604,0.551797448" id="Fill-133"></path>
                    <path d="M81.9533621,147.771371 L81.7902639,136.01588 C81.77173,134.659963 82.866712,133.552061 84.2211685,133.554289 C84.3761118,133.555032 84.5303137,133.555774 84.6845156,133.556517 C86.0389721,133.563942 87.1250578,134.680755 87.096145,136.036672 L86.8440841,147.789935 C86.8151712,149.112438 85.734275,150.166132 84.4139209,150.160934 L84.3657328,150.160934 C83.0446373,150.155736 81.971896,149.093873 81.9533621,147.771371 M7.46863734,169.702183 L1.09520443,159.829828 C0.359779806,158.690738 0.700061964,157.16923 1.84916293,156.451173 C1.97964149,156.369491 2.11086141,156.287809 2.24208133,156.206127 C3.39340636,155.491783 4.90577151,155.860094 5.60042158,157.023688 L11.6209693,167.115841 C12.2985682,168.251218 11.9419762,169.719262 10.8203054,170.417269 C10.806961,170.425438 10.7928752,170.434348 10.7795308,170.442516 C9.65786003,171.141267 8.18552808,170.813055 7.46863734,169.702183 M156.748715,172.894455 C156.73537,172.885544 156.722026,172.876633 156.708682,172.867722 C155.60851,172.130359 155.300106,170.647463 156.016256,169.532136 L162.362258,159.658296 C163.096942,158.514751 164.625617,158.196192 165.754701,158.950635 C165.882955,159.036029 166.01121,159.122166 166.139464,159.208304 C167.266325,159.966459 167.556936,161.502819 166.78222,162.619631 L160.091487,172.263277 C159.336045,173.352615 157.848886,173.632561 156.748715,172.894455" id="Fill-135"></path>
                </g>
            </g>
        </g>
    </g>
</svg>