<?xml version="1.0" encoding="UTF-8"?>
<svg width="152px" height="30px" viewBox="0 0 152 30" version="1.1" xmlns="http://www.w3.org/2000/svg" xmlns:xlink="http://www.w3.org/1999/xlink">
    <!-- Generator: Sketch 42 (36781) - http://www.bohemiancoding.com/sketch -->
    <title>DA</title>
    <desc>Created with Sketch.</desc>
    <defs></defs>
    <g id="Shop" stroke="none" stroke-width="1" fill="none" fill-rule="evenodd">
        <g id="Desktop-HD" transform="translate(-1112.000000, -4951.000000)" fill="#FFFFFF">
            <g id="DA" transform="translate(1112.000000, 4951.000000)">
                <path d="M81.4285375,5.736 C74.8519316,5.736 69.5018587,11.0513208 69.5018587,17.5843019 C69.5018587,24.1181887 74.8519316,29.4339623 81.4285375,29.4339623 C88.0051435,29.4339623 93.3552163,24.1181887 93.3552163,17.5843019 C93.3552163,11.0513208 88.0051435,5.736 81.4285375,5.736 M81.4285375,27.1698113 C76.1090027,27.1698113 71.7808129,22.8697358 71.7808129,17.5843019 C71.7808129,12.2997736 76.1090027,8.00015094 81.4285375,8.00015094 C86.7480724,8.00015094 91.0762622,12.2997736 91.0762622,17.5843019 C91.0762622,22.8697358 86.7480724,27.1698113 81.4285375,27.1698113 M77.4265573,14.8129358 C76.3085023,14.8129358 75.4028459,15.7136151 75.4028459,16.8235019 C75.4028459,17.9347472 76.3085023,18.8340679 77.4265573,18.8340679 C78.5437006,18.8340679 79.4498128,17.9347472 79.4498128,16.8235019 C79.4498128,15.7136151 78.5437006,14.8129358 77.4265573,14.8129358 M85.4206727,14.8129358 C86.5387276,14.8129358 87.4452956,15.7136151 87.4452956,16.8235019 C87.4452956,17.9347472 86.5387276,18.8340679 85.4206727,18.8340679 C84.3035294,18.8340679 83.3974172,17.9347472 83.3974172,16.8235019 C83.3974172,15.7136151 84.3035294,14.8129358 85.4206727,14.8129358 Z M74.1318276,3.33314717 C73.3610853,3.17148679 72.5474987,2.91835472 72.3519644,2.26492075 C72.2694663,1.98778868 72.2042882,1.29948679 73.387977,0.897373585 C75.129098,0.305524528 79.4887373,0.176015094 82.6947701,0.245750943 C89.9928929,0.403335849 90.3383824,1.28680755 90.4856028,1.66401509 C90.5995505,1.95563774 90.5421209,2.27714717 90.3310897,2.52348679 C89.5867833,3.39337358 84.9933232,3.74839245 80.7740675,3.74839245 C77.9960223,3.74839245 75.3802387,3.59488302 74.1318276,3.33314717 Z M88.1300758,1.96695849 C84.9523021,2.53752453 77.0014867,2.58099623 74.3606346,2.01541132 C77.0274668,1.43850566 84.9709895,1.42673208 88.1300758,1.96695849 Z M102.387714,12.7738415 C102.387714,14.6381434 101.218155,15.8612377 99.3936245,15.8612377 L97.2468496,15.8612377 L97.2468496,9.70410566 L99.3936245,9.70410566 C101.384063,9.70410566 102.387714,11.0743698 102.387714,12.7738415 Z M98.0321773,10.3978415 L99.3936245,10.3978415 C100.799283,10.3978415 101.593727,11.3863698 101.593727,12.7738415 C101.593727,14.1355019 100.825263,15.1670491 99.3936245,15.1670491 L98.0321773,15.1670491 L98.0321773,10.3978415 Z M104.824281,9.71275472 L104.824281,15.8608302 L104.038954,15.8608302 L104.038954,9.71275472 L104.824281,9.71275472 Z M109.040118,12.4444075 C110.33183,12.7305962 111.134477,13.0946717 111.134477,14.2045585 C111.134477,15.3927849 110.157262,15.9216906 108.882871,15.9216906 C107.931635,15.9216906 107.058796,15.6182943 106.360524,15.0545208 L106.73564,14.3956528 C107.111212,14.7855396 107.957615,15.2193509 108.900191,15.2193509 C109.782146,15.2193509 110.296734,14.8982943 110.296734,14.2828981 C110.296734,13.5891623 109.659538,13.3808604 108.507755,13.1032755 C107.250684,12.7998792 106.596168,12.4616151 106.596168,11.4821434 C106.596168,10.3025208 107.538743,9.66086038 108.821795,9.66086038 C109.650878,9.66086038 110.33183,9.93844528 110.855533,10.3632 L110.489078,10.9962566 C110.201018,10.6752 109.546502,10.3545962 108.804475,10.3545962 C107.844579,10.3545962 107.407931,10.7363321 107.407931,11.3603321 C107.407931,12.0196528 107.922975,12.192634 109.040118,12.4444075 Z M117.455202,11.6727396 C117.455202,12.5313057 116.940159,13.3029283 116.154375,13.5021736 L117.65575,15.860966 L116.765591,15.860966 L115.351728,13.6497962 L113.710881,13.6497962 L113.710881,15.860966 L112.925097,15.860966 L112.925097,9.70428679 L115.578711,9.70428679 C116.669419,9.70428679 117.455202,10.7014189 117.455202,11.6727396 Z M113.710881,12.9560604 L113.710881,10.3980226 L115.534956,10.3980226 C116.137055,10.3980226 116.661215,10.9790038 116.661215,11.6727396 C116.661215,12.3488151 116.233227,12.9560604 115.587372,12.9560604 L113.710881,12.9560604 Z M123.522416,12.8172226 L123.522416,9.70401509 L124.3082,9.70401509 L124.3082,12.8172226 C124.3082,14.4822792 123.574832,15.904166 121.671906,15.904166 C119.699243,15.904166 119.027407,14.3953358 119.027407,12.8172226 L119.027407,9.70401509 L119.812735,9.70401509 L119.812735,12.8172226 C119.812735,14.0312604 120.248927,15.2022792 121.663246,15.2022792 C123.103545,15.2022792 123.522416,13.9963925 123.522416,12.8172226 Z M128.804303,9.70428679 C129.89501,9.70428679 130.680794,10.7014189 130.680794,11.6727396 C130.680794,12.6870792 129.947426,13.6497962 128.856719,13.6497962 L127.006208,13.6497962 L127.006208,15.860966 L126.220881,15.860966 L126.220881,9.70428679 L128.804303,9.70428679 Z M128.812963,12.9560604 L127.006208,12.9560604 L127.006208,10.3980226 L128.760547,10.3980226 C129.362647,10.3980226 129.886806,10.9441358 129.886806,11.6727396 C129.886806,12.3750792 129.458819,12.9560604 128.812963,12.9560604 Z M131.554363,10.3978415 L131.554363,9.70410566 L136.616831,9.70410566 L136.616831,10.3978415 L134.478261,10.3978415 L134.478261,15.8612377 L133.692933,15.8612377 L133.692933,10.3978415 L131.554363,10.3978415 Z M138.040494,15.8608302 L138.040494,9.71275472 L138.826277,9.71275472 L138.826277,15.8608302 L138.040494,15.8608302 Z M143.260347,14.8809962 L145.302746,9.70424151 L146.13183,9.70424151 L143.600823,15.8609208 L142.919872,15.8609208 L140.380205,9.70424151 L141.209289,9.70424151 L143.260347,14.8809962 Z M148.218805,15.1671396 L151.640427,15.1671396 L151.640427,15.8608755 L147.433021,15.8608755 L147.433021,9.70419623 L151.561575,9.70419623 L151.561575,10.3979321 L148.218805,10.3979321 L148.218805,12.3921962 L151.125383,12.3921962 L151.125383,13.0429132 L148.218805,13.0429132 L148.218805,15.1671396 Z M108.902834,23.1973585 L108.902834,19.0236226 L110.148966,19.0236226 L110.148966,25.3872453 L109.138022,25.3872453 L105.83992,21.3031698 L105.83992,25.3872453 L104.593332,25.3872453 L104.593332,19.014566 L105.560064,19.014566 L108.902834,23.1973585 Z M115.128117,23.0178566 L115.128117,22.1112906 L117.450371,22.1112906 L117.450371,25.3870642 L116.420284,25.3870642 L116.420284,24.6688755 C115.914356,25.1896302 115.363305,25.4318943 114.712435,25.4318943 C113.068398,25.4318943 111.749795,23.8705358 111.749795,22.1647245 C111.749795,20.4235925 113.059282,18.9695547 114.794478,18.9695547 C115.959479,18.9695547 116.817733,19.5174792 117.232959,20.3611019 L116.30269,21.0430642 C115.995487,20.4149887 115.408428,20.0649509 114.748899,20.0649509 C113.701036,20.0649509 113.005043,21.0521208 113.005043,22.2009509 C113.005043,23.4036679 113.773051,24.3369509 114.820914,24.3369509 C115.408428,24.3369509 115.941248,24.0498566 116.420284,23.4661585 L116.420284,23.0178566 L115.128117,23.0178566 Z M120.676367,22.6406038 L120.676367,24.3011321 L123.883312,24.3011321 L123.883312,25.3870189 L119.429779,25.3870189 L119.429779,19.0143396 L123.802181,19.0143396 L123.802181,20.1006792 L120.676367,20.1006792 L120.676367,21.6353208 L123.37784,21.6353208 L123.37784,22.6406038 L120.676367,22.6406038 Z M127.03743,19.0144302 L127.03743,24.3012226 L130.307729,24.3012226 L130.307729,25.3871094 L125.790842,25.3871094 L125.790842,19.0144302 L127.03743,19.0144302 Z M134.184093,21.6801509 C135.448457,22.0034717 136.243356,22.3983396 136.243356,23.565283 C136.243356,24.9382642 135.132594,25.4590189 133.867775,25.4590189 C132.910158,25.4590189 131.916078,25.1538113 131.175418,24.6330566 L131.726469,23.565283 C131.943426,23.7808302 132.910158,24.3464151 133.886006,24.3464151 C134.563311,24.3464151 134.915638,24.1127547 134.915638,23.690717 C134.915638,23.1251321 134.256108,22.9639245 133.253369,22.6944906 C132.033672,22.362566 131.437498,21.9495849 131.437498,20.9714717 C131.437498,19.6695849 132.476701,18.9699623 133.777072,18.9699623 C134.67179,18.9699623 135.458029,19.3018868 136.01774,19.6786415 L135.466689,20.6839245 C135.304427,20.5046038 134.509072,20.0558491 133.741065,20.0558491 C133.06376,20.0558491 132.720549,20.3157736 132.720549,20.7735849 C132.720549,21.2943396 133.217361,21.4288302 134.184093,21.6801509 Z M99.6508273,19.0144302 L100.662683,19.0144302 L103.183206,25.3871094 L101.863692,25.3871094 L100.156299,20.3516377 L98.4402468,25.3871094 L97.1207323,25.3871094 L99.6508273,19.0144302 Z" id="Combined-Shape"></path>
                <path d="M0,15.2264151 L0,23.3773585 C0,23.6320755 0.197769517,23.8301887 0.45204461,23.8301887 C0.706319703,23.8301887 0.904089219,23.6320755 0.904089219,23.3773585 L0.904089219,19.8679245 L2.1472119,19.8679245 C3.333829,19.8679245 4.29442379,18.9056604 4.29442379,17.7169811 L4.29442379,16.9245283 C4.29442379,15.7358491 3.333829,14.7735849 2.1472119,14.7735849 L0.45204461,14.7735849 C0.197769517,14.7735849 0,14.9716981 0,15.2264151 L0,15.2264151 Z M3.39033457,16.9245283 L3.39033457,17.7169811 C3.39033457,18.4103774 2.82527881,18.9622642 2.1472119,18.9622642 L0.904089219,18.9622642 L0.904089219,15.6792453 L2.1472119,15.6792453 C2.82527881,15.6792453 3.39033457,16.245283 3.39033457,16.9245283 L3.39033457,16.9245283 Z M7.62825279,23.8301887 C8.81486989,23.8301887 9.77546468,22.8679245 9.77546468,21.6792453 L9.77546468,16.8679245 C9.77546468,15.6792453 8.81486989,14.7169811 7.62825279,14.7169811 C6.44163569,14.7169811 5.48104089,15.6792453 5.48104089,16.8679245 L5.48104089,21.6792453 C5.48104089,22.8679245 6.44163569,23.8301887 7.62825279,23.8301887 L7.62825279,23.8301887 Z M7.62825279,15.6226415 C8.3063197,15.6226415 8.87137546,16.1886792 8.87137546,16.8679245 L8.87137546,21.6792453 C8.87137546,22.3726415 8.3063197,22.9245283 7.62825279,22.9245283 C6.93605948,22.9245283 6.38513011,22.3726415 6.38513011,21.6792453 L6.38513011,16.8679245 C6.38513011,16.1886792 6.93605948,15.6226415 7.62825279,15.6226415 L7.62825279,15.6226415 Z M10.8208178,15.2830189 L12.798513,23.490566 C12.8408922,23.6886792 13.0245353,23.8301887 13.2364312,23.8301887 C13.4483271,23.8301887 13.6178439,23.6886792 13.6743494,23.490566 C13.6743494,23.490566 14.6773234,19.3018868 15.2141264,17.0943396 C15.736803,19.3018868 16.7539033,23.490566 16.7539033,23.490566 C16.7962825,23.6886792 16.9799257,23.8301887 17.1918216,23.8301887 C17.4037175,23.8301887 17.5732342,23.6886792 17.6297398,23.490566 L19.6074349,15.2830189 C19.6639405,15.0283019 19.5085502,14.7877358 19.2684015,14.7311321 C19.0282528,14.6745283 18.7881041,14.8160377 18.7315985,15.0707547 C18.7315985,15.0707547 17.7144981,19.245283 17.1918216,21.4528302 C16.6550186,19.245283 15.6520446,15.0707547 15.6520446,15.0707547 C15.595539,14.8584906 15.4260223,14.7169811 15.2141264,14.7169811 C15.0022305,14.7169811 14.8185874,14.8584906 14.7762082,15.0707547 C14.7762082,15.0707547 13.7591078,19.245283 13.2364312,21.4528302 C12.6996283,19.245283 11.6966543,15.0707547 11.6966543,15.0707547 C11.6401487,14.8160377 11.3858736,14.6745283 11.1457249,14.7311321 C10.9055762,14.7877358 10.7643123,15.0283019 10.8208178,15.2830189 L10.8208178,15.2830189 Z M21.1048327,23.3207547 C21.1048327,23.5754717 21.3026022,23.7735849 21.5568773,23.7735849 L24.3821561,23.7735849 C24.6364312,23.7735849 24.8342007,23.5754717 24.8342007,23.3207547 C24.8342007,23.0660377 24.6364312,22.8679245 24.3821561,22.8679245 L22.0089219,22.8679245 L22.0089219,19.5849057 L24.0996283,19.5849057 C24.3539033,19.5849057 24.5516729,19.3867925 24.5516729,19.1320755 C24.5516729,18.8773585 24.3539033,18.6792453 24.0996283,18.6792453 L22.0089219,18.6792453 L22.0089219,15.6792453 L24.3821561,15.6792453 C24.6364312,15.6792453 24.8342007,15.4811321 24.8342007,15.2264151 C24.8342007,14.9716981 24.6364312,14.7735849 24.3821561,14.7735849 L21.5568773,14.7735849 C21.3026022,14.7735849 21.1048327,14.9716981 21.1048327,15.2264151 L21.1048327,23.3207547 Z M30.5977695,17.7169811 L30.5977695,16.9245283 C30.5977695,15.7358491 29.6371747,14.7735849 28.4505576,14.7735849 L26.7553903,14.7735849 C26.5152416,14.7735849 26.3033457,14.9716981 26.3033457,15.2264151 L26.3033457,23.3773585 C26.3033457,23.6320755 26.5152416,23.8301887 26.7553903,23.8301887 C27.0096654,23.8301887 27.2074349,23.6320755 27.2074349,23.3773585 L27.2074349,19.8679245 L28.3657993,19.8679245 L29.7219331,23.5330189 C29.8066914,23.7735849 30.0750929,23.8867925 30.3011152,23.8018868 C30.5412639,23.7169811 30.6542751,23.4481132 30.5695167,23.2216981 L29.2698885,19.7122642 C30.0468401,19.3867925 30.5977695,18.6226415 30.5977695,17.7169811 L30.5977695,17.7169811 Z M28.4505576,18.9622642 L27.2074349,18.9622642 L27.2074349,15.6792453 L28.4505576,15.6792453 C29.1427509,15.6792453 29.6936803,16.245283 29.6936803,16.9245283 L29.6936803,17.7169811 C29.6936803,18.4103774 29.1427509,18.9622642 28.4505576,18.9622642 L28.4505576,18.9622642 Z M32.1799257,23.3207547 C32.1799257,23.5754717 32.3776952,23.7735849 32.6319703,23.7735849 L35.4572491,23.7735849 C35.7115242,23.7735849 35.9092937,23.5754717 35.9092937,23.3207547 C35.9092937,23.0660377 35.7115242,22.8679245 35.4572491,22.8679245 L33.0840149,22.8679245 L33.0840149,19.5849057 L35.1747212,19.5849057 C35.4289963,19.5849057 35.6267658,19.3867925 35.6267658,19.1320755 C35.6267658,18.8773585 35.4289963,18.6792453 35.1747212,18.6792453 L33.0840149,18.6792453 L33.0840149,15.6792453 L35.4572491,15.6792453 C35.7115242,15.6792453 35.9092937,15.4811321 35.9092937,15.2264151 C35.9092937,14.9716981 35.7115242,14.7735849 35.4572491,14.7735849 L32.6319703,14.7735849 C32.3776952,14.7735849 32.1799257,14.9716981 32.1799257,15.2264151 L32.1799257,23.3207547 Z M37.8304833,14.7735849 C37.5762082,14.7735849 37.3784387,14.9716981 37.3784387,15.2264151 L37.3784387,23.3207547 C37.3784387,23.5754717 37.5762082,23.7735849 37.8304833,23.7735849 L39.5256506,23.7735849 C40.7122677,23.7735849 41.6728625,22.8113208 41.6728625,21.6226415 L41.6728625,16.9245283 C41.6728625,15.7358491 40.7122677,14.7735849 39.5256506,14.7735849 L37.8304833,14.7735849 Z M40.7687732,16.9245283 L40.7687732,21.6226415 C40.7687732,22.3160377 40.2178439,22.8679245 39.5256506,22.8679245 L38.2825279,22.8679245 L38.2825279,15.6792453 L39.5256506,15.6792453 C40.2178439,15.6792453 40.7687732,16.245283 40.7687732,16.9245283 L40.7687732,16.9245283 Z M46.136803,15.2264151 L46.136803,23.3207547 C46.136803,23.5754717 46.3345725,23.7735849 46.5888476,23.7735849 L48.2840149,23.7735849 C49.470632,23.7735849 50.4312268,22.8113208 50.4312268,21.6226415 L50.4312268,20.8301887 C50.4312268,20.1367925 50.1063197,19.5283019 49.5977695,19.1320755 C50.1063197,18.7358491 50.4312268,18.1273585 50.4312268,17.4339623 L50.4312268,16.9245283 C50.4312268,15.7358491 49.470632,14.7735849 48.2840149,14.7735849 L46.5888476,14.7735849 C46.3345725,14.7735849 46.136803,14.9716981 46.136803,15.2264151 L46.136803,15.2264151 Z M49.5271375,20.8301887 L49.5271375,21.6226415 C49.5271375,22.3160377 48.9620818,22.8679245 48.2840149,22.8679245 L47.0408922,22.8679245 L47.0408922,19.5849057 L48.2840149,19.5849057 C48.9620818,19.5849057 49.5271375,20.1509434 49.5271375,20.8301887 L49.5271375,20.8301887 Z M49.5271375,16.9245283 L49.5271375,17.4339623 C49.5271375,18.1273585 48.9620818,18.6792453 48.2840149,18.6792453 L47.0408922,18.6792453 L47.0408922,15.6792453 L48.2840149,15.6792453 C48.9620818,15.6792453 49.5271375,16.245283 49.5271375,16.9245283 L49.5271375,16.9245283 Z M53.6096654,23.3773585 C53.6096654,23.6320755 53.8074349,23.8301887 54.06171,23.8301887 C54.3159851,23.8301887 54.5137546,23.6320755 54.5137546,23.3773585 L54.5137546,19.245283 L56.4490706,15.3679245 C56.5620818,15.1556604 56.463197,14.8726415 56.2371747,14.759434 C56.0111524,14.6603774 55.7427509,14.745283 55.6297398,14.9716981 C55.6297398,14.9716981 54.5702602,17.0943396 54.06171,18.1132075 C53.5531599,17.0943396 52.4936803,14.9716981 52.4936803,14.9716981 C52.3806691,14.745283 52.0981413,14.6603774 51.8862454,14.759434 C51.660223,14.8726415 51.5613383,15.1556604 51.6743494,15.3679245 L53.6096654,19.245283 L53.6096654,23.3773585 Z M58.1442379,23.2358491 C58.1442379,22.9103774 57.8899628,22.6415094 57.5509294,22.6415094 C57.2260223,22.6415094 56.9576208,22.9103774 56.9576208,23.2358491 C56.9576208,23.5613208 57.2260223,23.8301887 57.5509294,23.8301887 C57.8899628,23.8301887 58.1442379,23.5613208 58.1442379,23.2358491 L58.1442379,23.2358491 Z M57.5509294,17.2641509 C57.2260223,17.2641509 56.9576208,17.5330189 56.9576208,17.8584906 C56.9576208,18.1839623 57.2260223,18.4528302 57.5509294,18.4528302 C57.8899628,18.4528302 58.1442379,18.1839623 58.1442379,17.8584906 C58.1442379,17.5330189 57.8899628,17.2641509 57.5509294,17.2641509 L57.5509294,17.2641509 Z" id="POWERED-BY:"></path>
            </g>
        </g>
    </g>
</svg>